<svg xmlns="http://www.w3.org/2000/svg" viewBox="-15 15 650 650"><g clip-path="url(#p.0)"><g stroke-width="38" stroke="#000" transform="matrix(1.98762 0 0 2.1028 5.7 23.9)"><g id="svgstar" transform="translate(150 150)" fill="#ffb13b"><path id="svgbar" d="M-84.1-15.9a22.4 22.4 0 1 0 0 31.8H84a22.4 22.4 0 1 0 0-31.8Z"/><path d="M-84.1-15.9a22.4 22.4 0 1 0 0 31.8H84a22.4 22.4 0 1 0 0-31.8Z" transform="rotate(45)"/><path d="M-84.1-15.9a22.4 22.4 0 1 0 0 31.8H84a22.4 22.4 0 1 0 0-31.8Z" transform="rotate(90)"/><path d="M-84.1-15.9a22.4 22.4 0 1 0 0 31.8H84a22.4 22.4 0 1 0 0-31.8Z" transform="rotate(135)"/></g></g><g fill="#ffb13b"><path d="M136.6 306a44.6 47.1 0 1 0 0 66.6H471a44.6 47.1 0 1 0 0-66.7Z"/><path d="M207.9 190.6a44.6 47.1 0 1 0-44.6 47.1L399.8 488a44.6 47.1 0 1 0 44.6-47.2Z"/><path d="M335.4 162.3a44.6 47.1 0 1 0-63 0v354a44.6 47.1 0 1 0 63 0Z"/><path d="M444.4 237.7a44.6 47.1 0 1 0-44.6-47.1L163.3 440.8a44.6 47.1 0 1 0 44.6 47.2Z"/></g><path d="M120.8 397c-17.9 0-31.8-5.1-41.7-15.2a54.8 54.8 0 0 1-15-40.1c0-14.8 3-27.8 8.8-38.9a66.7 66.7 0 0 1 22.7-25.7c9.3-6 19.1-9 29.3-9 10 0 17.9 2.9 23.4 8.8a32 32 0 0 1 8.4 22.9c0 7.6-1.7 14.1-5 19.4-3.5 5.3-7.9 8-13.4 8-3.4 0-6.2-.9-8.3-2.5a8.2 8.2 0 0 1-3.2-6.9 112.6 112.6 0 0 1 1.4-8c1-2.6 1.4-5.2 1.4-7.6 0-2.3-.6-4.1-1.8-5.4-1.2-1.3-2.9-2-5-2-4.3 0-8.2 2-11.8 5.7a39.9 39.9 0 0 0-8.8 15.2 64.6 64.6 0 0 0-3.3 21c0 21.2 9.2 31.8 27.7 31.8 7.5 0 15.5-2.5 24.2-7.5s17.2-12.6 25.6-22.6c2.2-2.6 4.6-3.9 7.4-3.9 2.4 0 4.2 1.1 5.6 3.3a17 17 0 0 1 2 9c0 7-1.7 12.7-5.1 17a89 89 0 0 1-65.5 33.1Zm188-85.4c2.5 0 4.3 1.1 5.6 3.5 1.2 2.4 1.9 5.4 1.9 9 0 8.8-2.7 14-8 15.7-11 3.8-23 6-36.1 6.5a68.3 68.3 0 0 1-20.5 36.8 50.5 50.5 0 0 1-34.8 13.8 48.7 48.7 0 0 1-45.7-29c-4-8.7-6-18.2-6-28.4 0-14 2.6-26.3 7.9-37.1a62.4 62.4 0 0 1 21.9-25.5 55.2 55.2 0 0 1 31-9.1c13.8 0 25 4.7 33.5 14.3a61.6 61.6 0 0 1 14.9 35.5c8.6-.6 18.8-2.4 30.6-5.5a16 16 0 0 1 3.9-.5Zm-89.7 56.3c5.8 0 10.9-2.3 15.2-7a39.6 39.6 0 0 0 8.6-20.6 38 38 0 0 1-13-15 44.6 44.6 0 0 1-3.7-28.5h-1.4c-7.3 0-13.3 3.5-18.2 10.5a52 52 0 0 0-7.2 29.7c0 10 2 17.7 5.9 23 3.9 5.3 8.5 8 13.8 8Zm229.1-33.4c2.4 0 4.3 1.1 5.6 3.3a17 17 0 0 1 2 9c0 7.4-1.7 13-5.1 17-7.5 9.2-15.7 17-24.7 23.4-9 6.5-17.8 9.8-26.5 9.8-13.9 0-24.5-8.2-31.8-24.4a78.5 78.5 0 0 1-20.1 19.4c-5.7 3.3-12.4 5-20.1 5a34.9 34.9 0 0 1-27.5-12.5 47.7 47.7 0 0 1-10.8-32.4c0-14.6 3-28.2 9.3-40.7a83.1 83.1 0 0 1 25.6-30.6c10.8-8 23-12.7 36.5-14.1a344 344 0 0 1 19.9-90.8c9.7-25 22.5-37.6 38.4-37.6 7.9 0 14.4 3.5 19.6 10.7 5.2 7 7.8 17.8 7.8 32.2 0 20.5-5 44.4-15 71.8a531.7 531.7 0 0 1-40.3 84.3 60 60 0 0 0 4.8 22.7c2.4 4.6 5.6 6.8 9.4 6.8 5 0 10-2.1 15-6.5a200 200 0 0 0 20.6-22c2.2-2.5 4.7-3.8 7.4-3.8ZM416 165.1c-3.5 0-7 6.2-10.4 18.5a338.5 338.5 0 0 0-8.9 48.3 860 860 0 0 0-5.3 62.4c20.4-44.5 30.6-80.3 30.6-107.3 0-7-.6-12.3-1.8-16.1-1.1-3.9-2.6-5.8-4.2-5.8Zm-78.8 204.2c3.4 0 6.9-1.4 10.4-4.2 3.4-2.9 7.8-8.1 13.1-15.8-1.8-9.8-2.7-20.9-2.7-33 0-4.5.2-11.6.5-21.4a45.9 45.9 0 0 0-25 20 62 62 0 0 0-10 34.4c0 13.4 4.6 20 13.7 20Zm194.6-26.5c2.4 0 4.2 1 5.6 3.2a17 17 0 0 1 2 9c0 6.6-1.5 12.3-4.6 17a53.3 53.3 0 0 1-20.1 18.4 62.9 62.9 0 0 1-29.7 6.6c-17.5 0-31.1-5.3-40.8-15.8a60.4 60.4 0 0 1-14.5-42.6c0-12.5 2.6-24.3 8-35.1a65 65 0 0 1 22-25.9c9.4-6.4 20-9.6 31.9-9.6 10.5 0 19 3.2 25.4 9.5a34.3 34.3 0 0 1 9.6 25.6c0 12.6-4.5 23.4-13.5 32.4s-24.5 16.2-46.2 21.5c4.4 8.4 11.8 12.6 22.2 12.6a31 31 0 0 0 18.5-5.2 89.5 89.5 0 0 0 16.8-17.5c2.2-2.8 4.7-4.1 7.4-4.1Zm-44.9-48c-6.7 0-12.4 4-17.1 11.8-4.7 7.9-7 17.4-7 28.5v.5a62.2 62.2 0 0 0 25.5-11.5c6.2-5 9.3-11 9.3-17.8 0-3.4-1-6.2-2.9-8.3a10 10 0 0 0-7.8-3.1Z" fill="#3d8bff" stroke="#000" paint-order="stroke" stroke-width="44.6"/></g></svg>