<svg version="1.0" xmlns="http://www.w3.org/2000/svg" viewBox="0 0 2048 2048" preserveAspectRatio="xMidYMid meet"><g transform="translate(0.000000,2048.000000) scale(0.100000,-0.100000)" fill="#000000" stroke="none"><path d="M0 10240 l0 -10240 10240 0 10240 0 0 10240 0 10240 -10240 0 -10240 0 0 -10240z m10285 6885 c108 -21 134 -29 230 -70 275 -117 492 -328 622 -605 92 -196 123 -334 123 -560 0 -220 -36 -380 -127 -570 -41 -84 -135 -228 -182 -277 l-31 -32 -2 -1173 -3 -1172 -110 -46 c-176 -74 -293 -138 -465 -253 -192 -130 -440 -355 -592 -539 -45 -54 -86 -97 -91 -95 -4 1 -23 30 -42 63 -81 151 -259 388 -367 490 -239 227 -483 362 -778 432 -140 33 -188 41 -350 53 -217 17 -484 -7 -675 -62 -218 -62 -377 -130 -543 -230 -51 -31 -66 -36 -80 -27 -9 6 -68 66 -130 132 -62 67 -172 183 -245 260 l-132 138 -95 9 c-418 40 -776 291 -959 674 -90 187 -140 396 -141 579 0 231 88 516 219 711 112 166 180 234 341 344 168 113 312 166 527 192 239 29 518 -43 735 -188 225 -150 402 -384 487 -643 44 -133 71 -274 71 -371 0 -52 2 -56 62 -119 34 -36 98 -103 142 -150 44 -47 123 -130 176 -185 52 -56 129 -137 170 -180 227 -241 425 -451 505 -535 49 -52 92 -97 95 -100 3 -3 43 -46 90 -95 269 -284 411 -435 444 -472 21 -24 42 -40 47 -37 5 3 9 552 9 1297 l0 1292 -30 32 c-92 98 -192 272 -245 423 -46 134 -57 188 -73 348 -10 103 9 307 39 407 54 184 122 324 229 467 189 255 502 432 814 458 100 8 219 2 311 -15z m2947 -1506 c40 -6 81 -15 90 -20 10 -5 24 -9 32 -9 22 0 120 -53 169 -91 46 -36 150 -151 171 -190 57 -104 74 -143 95 -209 13 -41 27 -84 32 -95 4 -11 10 -38 14 -60 3 -22 11 -74 17 -115 16 -102 16 -586 0 -725 -19 -162 -29 -233 -42 -305 -23 -127 -28 -149 -60 -295 -5 -25 -14 -64 -19 -87 -5 -24 -15 -61 -21 -83 -6 -22 -15 -56 -20 -75 -8 -34 -17 -65 -41 -147 -6 -21 -13 -50 -16 -66 -3 -15 -9 -30 -14 -33 -5 -3 -9 -14 -9 -25 0 -10 -4 -27 -9 -37 -5 -9 -32 -89 -60 -177 -55 -169 -81 -243 -112 -312 -11 -24 -19 -46 -19 -51 0 -5 -9 -27 -20 -50 -11 -22 -20 -47 -20 -55 0 -7 -4 -17 -8 -22 -5 -6 -19 -37 -31 -70 -13 -33 -27 -70 -32 -82 -5 -13 -13 -33 -18 -45 -9 -23 -27 -66 -57 -135 -16 -36 -30 -69 -89 -198 -14 -30 -36 -80 -50 -110 -14 -30 -37 -81 -51 -112 -37 -82 -309 -626 -348 -698 -18 -33 -43 -78 -56 -100 -13 -22 -33 -59 -46 -82 -13 -24 -35 -63 -49 -88 -14 -25 -36 -65 -50 -90 -14 -25 -37 -66 -51 -92 -14 -27 -31 -54 -36 -61 -12 -13 5 -212 23 -268 5 -17 9 -42 9 -57 0 -14 4 -36 9 -49 5 -13 14 -43 21 -68 7 -25 16 -53 21 -62 5 -10 9 -23 9 -29 0 -30 73 -159 112 -195 65 -63 117 -84 209 -84 43 0 91 5 106 11 15 6 38 15 51 20 110 43 182 97 350 263 l153 151 -6 150 c-6 151 6 419 24 530 10 62 21 116 41 195 6 25 14 57 17 73 3 15 9 30 14 33 5 3 9 14 9 25 0 10 4 27 9 37 8 16 18 40 40 95 18 45 82 173 111 222 17 28 34 59 39 70 8 18 85 127 128 180 36 45 171 182 218 221 164 135 246 187 390 249 22 9 48 21 57 26 10 5 25 9 33 9 8 0 23 4 33 9 33 16 87 30 240 60 70 14 379 14 439 0 256 -59 420 -159 556 -340 37 -49 100 -173 116 -229 7 -25 17 -56 21 -70 32 -101 35 -260 10 -445 -19 -139 -22 -155 -31 -161 -5 -3 -9 -16 -9 -29 0 -13 -4 -27 -10 -30 -5 -3 -10 -14 -10 -24 0 -30 -96 -211 -152 -286 -75 -101 -221 -243 -310 -303 -42 -29 -80 -52 -83 -52 -4 0 -25 -13 -48 -28 -37 -25 -189 -102 -242 -122 -11 -4 -41 -17 -67 -29 -26 -12 -54 -21 -62 -21 -8 0 -17 -4 -20 -8 -3 -4 -28 -14 -56 -22 -28 -8 -53 -18 -56 -22 -3 -4 -14 -8 -25 -8 -10 0 -27 -4 -37 -9 -9 -5 -37 -15 -62 -21 -25 -7 -54 -16 -65 -20 -11 -5 -33 -11 -50 -15 -16 -3 -46 -10 -65 -15 -19 -5 -50 -13 -69 -17 -55 -13 -59 -33 -21 -89 19 -27 44 -62 57 -78 26 -32 153 -136 166 -136 4 0 26 -9 50 -19 77 -35 155 -50 301 -58 180 -9 343 36 498 139 86 57 288 257 398 393 106 131 108 133 163 164 93 52 195 10 244 -99 60 -132 33 -390 -58 -575 -115 -232 -419 -504 -664 -595 -11 -4 -31 -12 -45 -18 -14 -6 -43 -16 -65 -23 -22 -6 -49 -15 -60 -19 -32 -12 -97 -29 -135 -34 -19 -3 -82 -13 -140 -22 -159 -24 -463 -12 -645 25 -27 6 -65 13 -83 17 -18 3 -35 10 -38 15 -3 5 -14 9 -25 9 -10 0 -27 4 -37 9 -9 5 -35 17 -57 26 -214 89 -387 221 -505 383 -28 39 -52 62 -64 62 -16 0 -70 -44 -201 -163 -11 -10 -60 -49 -110 -86 -237 -179 -354 -238 -585 -293 -51 -13 -315 -15 -373 -3 -20 4 -40 11 -43 16 -3 5 -14 9 -25 9 -10 0 -27 4 -37 9 -9 5 -48 24 -87 42 -55 27 -93 57 -176 139 -112 111 -180 204 -243 333 -21 42 -44 77 -52 77 -7 0 -35 -28 -61 -62 -74 -97 -287 -305 -393 -384 -89 -66 -194 -124 -250 -139 -14 -3 -41 -11 -60 -17 -160 -46 -490 -50 -572 -7 -10 5 -27 9 -37 9 -11 0 -23 5 -26 10 -3 6 -13 10 -22 10 -8 0 -43 14 -76 31 -222 113 -400 318 -509 589 -6 14 -14 33 -19 42 -5 10 -9 29 -9 42 0 14 -4 27 -9 30 -20 13 -41 240 -39 422 1 88 -2 166 -6 173 -6 9 -21 11 -50 7 -72 -11 -228 -26 -321 -32 -49 -3 -94 -10 -99 -15 -13 -12 -36 -80 -36 -107 0 -12 -4 -30 -9 -40 -5 -9 -18 -48 -30 -87 -12 -38 -26 -79 -30 -90 -24 -58 -31 -75 -55 -125 -133 -279 -372 -549 -625 -708 -60 -38 -215 -112 -233 -112 -9 0 -20 -4 -23 -10 -3 -5 -16 -10 -29 -10 -12 0 -26 -4 -31 -9 -6 -5 -28 -12 -50 -15 -22 -3 -69 -11 -105 -17 -183 -33 -488 -8 -675 55 -77 26 -95 34 -214 98 -128 68 -295 213 -388 336 -30 39 -59 72 -64 72 -6 0 -36 -22 -67 -49 -50 -42 -150 -115 -201 -146 -9 -5 -34 -21 -56 -35 -80 -50 -197 -110 -320 -165 -22 -9 -53 -23 -69 -31 -16 -8 -35 -14 -43 -14 -7 0 -21 -4 -31 -9 -9 -5 -37 -15 -62 -21 -25 -7 -54 -16 -65 -20 -11 -5 -33 -11 -50 -14 -29 -5 -76 -15 -172 -37 -288 -64 -736 -32 -980 72 -13 5 -33 13 -45 18 -199 75 -406 248 -548 456 -71 104 -170 305 -170 344 0 11 -4 22 -9 25 -5 3 -11 18 -14 33 -4 16 -11 51 -17 78 -27 121 -32 171 -37 350 -5 180 1 275 28 460 10 68 15 92 38 183 28 110 34 128 42 144 5 10 9 25 9 33 0 8 4 23 9 33 5 9 13 28 19 42 18 44 72 164 83 184 17 30 47 83 71 124 11 20 26 46 32 57 10 19 64 94 76 105 3 3 24 31 48 62 80 105 297 295 411 360 78 45 179 95 236 117 33 13 69 26 80 31 144 57 456 83 615 52 36 -7 80 -16 98 -19 18 -3 35 -9 38 -14 3 -5 14 -9 25 -9 18 0 28 -4 81 -32 13 -6 34 -17 48 -24 43 -23 137 -112 186 -176 55 -72 114 -182 132 -248 8 -25 18 -60 23 -77 14 -45 13 -390 0 -426 -6 -16 -11 -41 -11 -57 0 -16 -4 -32 -10 -35 -6 -3 -10 -15 -10 -26 0 -10 -4 -27 -9 -37 -5 -9 -21 -43 -36 -74 -33 -71 -102 -165 -147 -198 -84 -63 -116 -73 -234 -74 -117 -1 -130 2 -209 55 -74 49 -101 137 -76 251 6 24 15 68 21 98 7 30 16 69 20 85 5 17 14 56 20 89 27 135 -35 247 -152 275 -31 8 -67 11 -79 8 -73 -17 -100 -26 -128 -41 -17 -9 -44 -23 -60 -31 -35 -19 -156 -144 -201 -210 -43 -62 -102 -178 -120 -235 -7 -25 -17 -49 -22 -55 -4 -5 -8 -21 -8 -36 0 -15 -4 -30 -9 -33 -5 -3 -11 -20 -14 -38 -3 -18 -11 -55 -17 -83 -36 -170 -47 -461 -22 -605 7 -41 15 -92 19 -113 3 -20 9 -40 14 -43 5 -3 9 -14 9 -25 0 -10 4 -27 9 -37 5 -9 15 -30 22 -47 7 -16 35 -63 62 -102 69 -105 202 -200 325 -232 23 -6 59 -15 80 -21 58 -14 209 -19 297 -10 127 15 165 22 171 31 3 5 15 9 28 9 12 0 26 4 32 8 5 4 27 14 49 21 93 29 264 117 380 194 92 62 269 200 294 231 11 13 12 42 6 149 -14 248 7 514 55 707 17 68 32 125 40 145 4 11 13 38 19 60 12 40 15 47 46 120 45 105 138 279 174 325 15 19 43 58 61 85 40 59 203 221 286 285 93 72 105 80 232 151 20 12 42 24 47 28 6 4 30 14 55 21 25 7 50 16 55 20 6 3 28 12 50 19 22 7 49 16 60 21 11 4 47 13 80 20 33 7 75 17 92 22 49 14 418 13 483 -1 120 -28 190 -46 225 -60 78 -32 200 -99 255 -140 126 -95 280 -275 369 -434 10 -19 24 -43 30 -53 21 -37 71 -155 71 -168 0 -7 3 -16 7 -20 11 -10 33 -79 33 -103 0 -12 4 -24 9 -27 5 -3 11 -23 14 -43 4 -21 11 -65 16 -98 6 -33 14 -82 18 -110 l8 -50 90 1 c50 1 124 7 165 13 41 7 100 16 130 21 30 5 78 14 105 20 28 6 70 14 94 18 43 7 45 9 86 87 23 44 52 98 65 120 13 22 32 56 43 76 68 127 299 394 441 513 39 32 82 68 96 80 51 43 136 105 175 127 85 48 223 116 280 138 33 13 70 27 83 32 82 33 134 49 158 49 11 0 24 4 30 9 5 5 27 11 49 15 97 13 173 26 205 33 40 10 41 13 60 208 13 137 44 381 59 475 5 30 15 87 21 125 21 130 29 171 60 323 15 78 45 211 59 267 6 22 15 59 21 83 5 23 15 61 21 85 6 23 13 57 16 75 3 18 9 35 14 38 5 3 9 16 9 29 0 13 4 34 9 47 8 22 15 46 41 138 7 25 16 54 20 65 4 11 18 54 30 95 12 41 26 83 31 92 5 10 9 26 9 36 0 10 4 22 8 28 5 5 19 43 32 84 13 41 27 79 32 85 4 5 8 17 8 27 0 10 4 26 9 36 8 17 22 49 40 95 24 62 84 187 138 288 28 52 129 208 142 219 3 3 31 34 61 70 66 79 62 75 130 130 30 25 57 47 60 50 9 9 64 39 120 66 97 46 108 50 220 68 101 18 99 18 182 5z m1202 -290 c64 -40 208 -160 261 -218 122 -133 220 -304 264 -456 55 -191 63 -244 63 -415 0 -146 -3 -178 -27 -275 -70 -287 -156 -448 -329 -620 -125 -124 -185 -169 -310 -232 l-69 -35 7 39 c4 21 11 52 16 68 14 46 62 253 79 340 31 161 48 266 60 365 6 47 16 126 23 175 17 127 17 716 0 820 -28 172 -52 281 -88 393 -13 42 -24 78 -24 79 0 10 30 -2 74 -28z m-5043 -6506 c84 -125 107 -152 224 -268 113 -112 235 -203 360 -267 75 -39 211 -96 260 -108 68 -19 154 -39 210 -50 72 -15 454 -16 523 -2 26 6 74 15 107 22 181 35 424 137 558 234 43 31 83 56 88 56 6 0 31 -18 57 -39 122 -102 337 -207 512 -249 115 -28 178 -34 345 -34 200 0 304 15 490 71 l70 21 70 -72 c39 -40 147 -154 240 -253 93 -99 206 -218 251 -264 l80 -83 94 -10 c82 -8 140 -19 245 -47 74 -20 155 -58 310 -147 79 -45 242 -214 323 -336 104 -155 136 -232 189 -448 22 -90 25 -128 26 -265 0 -234 -39 -406 -135 -592 -65 -128 -118 -203 -212 -302 -144 -149 -302 -250 -501 -317 -147 -50 -411 -60 -580 -23 -216 48 -453 189 -628 374 -33 35 -187 265 -187 280 0 3 -9 24 -19 48 -26 56 -57 151 -70 212 -6 28 -15 71 -21 97 -5 26 -10 68 -10 95 -1 105 -11 127 -101 220 -46 48 -124 130 -174 182 -49 53 -97 102 -105 111 -8 8 -49 51 -90 95 -307 326 -547 581 -590 625 -8 9 -49 51 -90 95 -41 44 -149 159 -240 255 -91 96 -203 216 -250 266 -47 50 -88 92 -92 93 -5 0 -8 -583 -8 -1298 0 -1146 2 -1300 15 -1311 45 -37 156 -205 209 -315 80 -169 116 -336 116 -546 0 -233 -30 -367 -132 -579 -61 -127 -119 -211 -212 -308 -171 -178 -351 -282 -595 -343 -101 -25 -348 -31 -441 -10 -317 70 -555 219 -729 455 -154 208 -230 417 -259 706 -10 101 10 308 39 405 59 200 141 358 265 509 l44 55 0 1290 c0 724 -4 1291 -9 1291 -7 0 -166 -164 -421 -435 -41 -44 -82 -86 -90 -95 -43 -44 -283 -299 -590 -625 -41 -44 -82 -87 -90 -95 -24 -25 -188 -198 -280 -295 -46 -50 -124 -131 -172 -181 l-88 -91 0 -56 c0 -30 -5 -79 -11 -109 -6 -29 -15 -78 -21 -108 -41 -221 -165 -465 -308 -609 -175 -174 -360 -286 -570 -343 -80 -22 -275 -35 -380 -26 -156 13 -240 36 -400 109 -163 75 -347 237 -465 409 -59 86 -131 228 -146 284 -72 286 -79 324 -79 408 0 431 201 845 520 1069 109 77 244 145 335 169 125 34 161 41 244 49 l94 9 81 83 c45 46 156 163 246 259 91 96 208 219 260 273 l95 98 75 -26 c129 -45 196 -62 355 -90 96 -18 484 -20 584 -5 341 55 618 166 890 358 97 69 309 266 381 355 25 31 48 56 52 57 4 0 31 -35 59 -77z"></path><path d="M13054 14933 c-71 -14 -164 -162 -225 -358 -12 -38 -25 -79 -30 -90 -4 -11 -10 -33 -14 -50 -3 -16 -10 -47 -15 -67 -19 -73 -31 -123 -40 -163 -5 -22 -14 -60 -20 -85 -6 -25 -16 -67 -21 -95 -5 -27 -14 -70 -19 -95 -21 -103 -54 -294 -80 -465 -17 -113 -44 -326 -60 -490 -6 -55 -15 -143 -20 -195 -6 -52 -15 -138 -20 -190 -5 -52 -14 -140 -20 -195 -6 -55 -15 -163 -20 -240 -5 -77 -14 -216 -21 -310 -17 -238 -17 -367 -2 -372 7 -3 17 7 23 21 5 14 19 47 31 74 12 26 28 63 36 82 8 19 23 53 33 75 10 22 25 56 33 75 8 19 22 53 32 75 9 22 21 49 25 60 4 11 15 36 23 55 8 19 32 78 52 130 20 52 40 104 45 115 13 35 27 69 38 95 6 14 16 43 23 65 7 22 16 45 19 50 4 6 12 30 20 55 7 25 17 49 22 54 4 6 8 18 8 28 0 10 4 26 10 36 16 29 110 319 110 341 0 11 4 22 9 25 5 3 11 18 14 33 3 16 10 45 16 66 25 84 33 114 42 152 6 22 14 57 19 78 25 94 32 125 41 170 5 26 14 70 19 97 30 149 33 170 62 385 13 99 17 603 5 675 -23 135 -63 236 -108 274 -30 26 -35 27 -75 19z"></path><path d="M14895 11458 c-49 -13 -67 -19 -129 -49 -56 -27 -177 -142 -225 -211 -38 -57 -131 -238 -131 -256 0 -7 -4 -20 -9 -30 -11 -20 -26 -77 -60 -225 -6 -26 -11 -62 -11 -80 0 -17 -5 -76 -12 -129 -17 -137 -15 -138 122 -110 50 10 73 18 153 51 15 6 37 15 50 20 144 56 350 183 433 265 142 141 196 262 197 431 0 86 -4 108 -26 157 -62 139 -199 203 -352 166z"></path><path d="M11499 11450 c-26 -8 -72 -27 -149 -63 -151 -71 -336 -233 -440 -387 -151 -222 -247 -441 -289 -655 -27 -137 -31 -184 -31 -344 0 -161 4 -194 31 -291 31 -106 103 -197 187 -237 49 -23 70 -26 149 -26 51 -1 103 4 115 10 13 5 44 20 70 31 110 50 213 150 382 375 l88 118 -6 52 c-4 29 -11 79 -16 112 -5 33 -14 108 -19 167 -5 59 -13 113 -17 119 -3 6 -7 239 -8 517 -1 327 -5 506 -11 508 -5 1 -22 -1 -36 -6z"></path><path d="M7860 11400 c-8 -5 -26 -10 -40 -10 -15 0 -30 -4 -35 -8 -6 -5 -29 -14 -51 -21 -54 -17 -162 -98 -219 -166 -48 -56 -151 -248 -174 -325 -7 -25 -17 -54 -21 -65 -64 -158 -70 -654 -12 -865 34 -123 106 -245 199 -335 53 -53 163 -115 202 -115 11 0 31 -4 46 -10 28 -11 166 4 197 21 10 5 24 9 32 9 23 0 123 56 172 97 65 52 145 163 194 268 24 50 47 98 51 107 5 10 9 27 9 37 0 11 4 22 9 25 10 6 19 60 27 146 l4 55 -56 45 c-60 49 -154 144 -194 199 -56 75 -152 279 -172 366 -5 22 -14 60 -20 85 -10 40 -14 278 -6 415 l3 50 -65 3 c-36 1 -72 -2 -80 -8z"></path></g></svg>