<svg xmlns="http://www.w3.org/2000/svg" version="1.0" viewBox="0 0 172 172"><path d="M76.815 86.348c-28.77 43.318-24.232 84.849 0 84.849 23.798 0 29.07-43.222 0-84.849z" fill="#4e9d44" fill-rule="evenodd" stroke="#000" stroke-linejoin="round"/><path d="M76.368 86.14c-51.95-2.3-85.188 23.01-72.688 43.769 12.276 20.388 52.023 2.607 72.688-43.77z" fill="#fbec13" fill-rule="evenodd" stroke="#000" stroke-linejoin="round"/><path d="M77.226 86.07c22.627 46.82 60.68 64.066 73.02 43.212 12.12-20.481-22.391-47.03-73.02-43.212z" fill="#3d449c" fill-rule="evenodd" stroke="#000" stroke-linejoin="round"/><path d="M77.19 85.565c51.898 3.256 85.596-21.44 73.48-42.424-11.899-20.61-51.966-3.565-73.48 42.424z" fill="#bd87bb" fill-rule="evenodd" stroke="#000" stroke-linejoin="round"/><path d="M76.737 85.348C105.506 42.031 100.97.5 76.737.5c-23.799 0-29.07 43.222 0 84.848z" fill="#ed2124" fill-rule="evenodd" stroke="#000" stroke-linejoin="round"/><path d="M76.324 85.632c-23.13-46.573-61.366-63.41-73.481-42.424-11.9 20.61 22.896 46.786 73.48 42.424z" fill="#fcae18" fill-rule="evenodd" stroke="#000" stroke-linejoin="round"/></svg>