<svg xmlns="http://www.w3.org/2000/svg" version="1.0" viewBox="512 512 1024 1024"><path d="M512 1024v512h1024V512H512v512zm522.5-342.1c17 6 29.8 18.9 36.8 37.4 3 7.8 3.1 8.9 3.1 22.2 0 13.3-.1 14.4-3.1 22.2-3 7.9-8.8 17.8-11.8 20.3-1.3 1.1-1.5 9.6-1.5 59.9v58.6l-11.8 5.6c-17.6 8.5-37.8 24.7-49 39.3-1.2 1.6-2.4 2.7-2.6 2.5-.1-.2-1.7-3-3.5-6.1-11.7-20.8-33.1-38-53.7-43.2-24.8-6.3-52.3-3.1-74.4 8.5l-9.5 5-13-13.5-13-13.4-7.2-1.1c-29.1-4.4-50.1-28.3-52-59.1-1.2-19.5 8.5-41.3 23.5-53 37.4-29.1 89.8-5 94.8 43.5l.7 7 42.6 45.2c23.4 24.8 42.9 45.2 43.4 45.2.4.1.7-29 .7-64.6v-64.7l-2.4-2.5c-4.3-4.5-9.6-14.3-12.2-22.6-3.7-11.4-3.7-26.6 0-38 2.7-8.4 7.4-17.2 13.2-24.2 4.2-5.2 16.4-13.4 23.9-16.2 11.2-4.2 26.4-4.3 38-.2zm147.7 75.3c9.4 4 17.5 15.2 21.5 29.8 2.7 9.8 2.4 41.2-.6 57.4-8.5 47-30.1 102.4-62.9 161.5l-8.6 15.4 1.3 8.6c1.8 12.9 5.2 21.9 10 26.3 3.6 3.4 4.6 3.8 9.4 3.8 7.5 0 14.5-3.8 24.4-13.3l8.3-8v-14.2c0-8.6.6-17.5 1.5-22.2 6.7-35.1 28.7-61.7 59-71.3 9.7-3 25.8-3.8 34.2-1.7 22.8 5.9 35.8 24.7 33.8 48.7-2.8 32.7-24.3 53-69.2 65.5-5.7 1.6-10.3 3.2-10.3 3.5 0 1.8 6.4 9.3 10 11.6 10.6 7 30.3 7 42.4-.1 4.3-2.5 19-17.1 24.1-23.8 3.7-5 7.8-7.1 12.2-6.2 6.4 1.2 9.3 9.8 7.4 22.1-2.9 18.6-19.4 36.3-41.5 44.2-16.6 6.1-41.5 6.6-56.7 1.4-12.1-4.2-17.2-7.4-26.1-16.3-8.6-8.6-8.7-8.7-10.5-6.6-4.2 4.7-19.4 16-26.4 19.7-19.7 10.2-38.3 8.9-51.9-3.6-5.3-5-12.5-14.9-14.3-19.7-1-2.6-1.7-2.1-7.5 4.9-5.5 6.7-18.2 17.3-24.4 20.5-5.3 2.7-15.8 4.9-23.9 4.9-17.8 0-34.1-10.4-43.2-27.8-5.1-9.7-6.7-17-6.7-30.7v-11.8l-4.7.6c-2.7.4-8.1.9-12.1 1.3-6.8.6-7.3.8-7.8 3.3-1.3 6-5.8 18-9 23.8-15 27.1-40.8 42.7-67.5 40.9-19.1-1.4-31-6.7-44.1-19.8l-8.8-8.7-7.2 5.5c-11 8.2-27.1 15.9-41.3 19.5-10.5 2.7-13.8 3.1-26 3.1-16.1.1-25.1-1.8-37-7.6-20.8-10.3-34.6-32.8-36.2-59.1-1.6-26.7 6.3-53.8 21.5-73.5 20.4-26.5 56.2-38 80.9-26 7.2 3.5 12.9 9.8 17.1 18.7 2.5 5.3 2.7 6.8 2.7 18.3 0 10.7-.3 13.4-2.3 18.7-4.4 11.5-11.5 17.3-21.2 17.3-6.7 0-11.8-2.4-13.8-6.6-1.4-3-1.4-4 .3-12.1 2.8-13.4 2.9-16.3.6-20-2.4-3.9-6.8-5-13.2-3.3-3.3.9-6 2.7-10.5 7.3-10 10.3-15.1 24.3-16.1 44.3-1.5 30.8 11.3 46.9 37.2 46.7 13.9-.2 27.6-5.7 43.8-17.9l8.7-6.5v-14.3c0-22.8 3.8-38.8 13.4-56.1 7.7-13.8 26.2-29.8 40.6-35.1 18.3-6.6 42.2-5.7 55.9 2.3 18.2 10.5 30.5 30.3 34.6 55.5.6 3.6.8 3.8 4.3 3.8 2 0 7.5-.6 12.2-1.4 15.7-2.7 14.5-2 19.1-10.5 15.9-28.9 42.2-48.9 71.9-54.5 4.6-.9 8.5-1.8 8.7-2 .2-.1 1-6.3 1.9-13.7 4.6-40.6 17.3-91.2 29.5-117.7 14.6-31.7 37.5-46 59.1-37zm56 15.6c35.6 27.3 32.5 84.3-5.8 106.2-3 1.8-5.7 3-6 2.7-.2-.2 0-1.6.5-2.9 1.7-4.4 6.2-27.9 7.7-39.7 2.8-22.9 1.4-52.4-3.1-66-.8-2.5-1.5-4.6-1.5-4.8 0-1.2 2.7.3 8.2 4.5zm-255.9 322.8c8.9 13.9 24.2 25.4 41.7 31.4 8.4 2.8 28 3.9 38.4 2 10-1.8 22.7-6.5 29.6-11.2l5.9-3.9 6.3 4.2c8.1 5.5 17.5 9.4 26.2 11 9.4 1.6 27.3.7 35.3-1.9l6.2-2 15.7 16.8 15.7 16.8 5.8.6c33.7 3.8 57.5 35 53.7 70.1-3.6 33.4-32.5 58.2-64.2 55-22.4-2.2-42.6-18.5-50.2-40.5-1.4-4-2.8-10.4-3.1-14.2l-.6-7.1-7.6-8.2c-4.2-4.6-23.6-25.2-43.1-45.8l-35.5-37.6-.3 64.5-.2 64.5 3.9 5.2c4.9 6.5 9.5 16.2 11.7 24.7 2.4 9.6 1.6 26.1-1.9 35.8-8.9 25.4-30.3 41.2-55.7 41.3-26.7 0-48.3-16.9-57-44.6-3.1-9.8-3.1-26.1 0-36 2.5-8.1 6.8-16.2 11.6-22.2l3.4-4.2-.2-64.7-.3-64.8-43.1 45.6-43.1 45.6-.7 6.7c-2.3 22.5-15.1 41-35.1 50.6-18.8 9.1-39.9 7.1-57.8-5.4-16.3-11.4-26.8-34.1-25.3-54.8 2.1-31.3 22.7-54.5 52.3-59.1l7.5-1.2 16.6-17.6 16.7-17.6 7.3 2.3c11.2 3.5 20.3 4.6 34.7 4 26.5-1.1 48.5-11.1 67.5-30.8 4.1-4.3 7.7-7.8 8-7.8.3 0 1.8 2 3.3 4.5z"/><path d="M1162.6 791.1c-9.6 7.6-18.8 47.3-25 108.9-2.7 26.5-5 58.6-4.5 61.2.2 1 3.5-5.5 7.3-14.4 22.8-53.4 33.5-93.9 33.6-127.1 0-14.3-1.9-25.2-5.1-28.6-2.5-2.6-3-2.6-6.3 0zM1080.1 967c-15.1 7.3-27.2 22.5-34.3 43-3.1 9-3.2 10.2-3.3 24.5 0 13.5.2 15.4 2.2 19 4.7 8.8 11.4 11.8 20.5 9.1 6.7-1.9 13.1-7.4 21.3-18.1l5.8-7.5-1.3-8.8c-.8-4.8-1.6-21.4-1.9-37l-.6-28.3-8.4 4.1zm174.5-3c-13.3 4-24.2 23.1-26.2 46.1l-.7 8.2 4.3-.7c10.7-1.7 30.9-12.8 36.3-19.9 7.2-9.5 9.2-21 4.7-28.2-3.5-5.7-10.6-7.8-18.4-5.5zm-354.3 3.7c-9.1 3.2-17.9 14.3-21.7 27.2-4.1 14-4 35.7.4 47.3 5.4 14.5 16.6 21.8 28.9 18.8 7.2-1.7 13.4-6.2 18.1-13.2 3.9-5.8 8-16.7 8-21.2 0-1.3-2.6-4.8-6.8-9.2-11.6-11.8-16.9-26.2-15.8-42.7l.6-8.7-3.8.1c-2 0-5.6.7-7.9 1.6z"/></svg>