<svg version="1.0" xmlns="http://www.w3.org/2000/svg" viewBox="0 0 2048 2048"><path d="M0 1024v1024h2048V0H0v1024zm1024.3-798c6.4.5 13.9 1.4 16.5 2 2.6.6 7 1.5 9.7 2.1 13.2 2.9 44.6 13.2 48 15.9.6.4 5.1 2.9 10 5.5 20.1 10.7 47.9 33 60.4 48.5 2.4 3 6.1 7.3 8.2 9.5 12.4 13.2 31.2 48.3 39.2 73 4.2 13.1 5.3 16.7 7.6 26.2 1.3 5.5 2.9 17 4.2 31.5l1.2 12.7 3.1-2.3c1.7-1.2 9.2-6.7 16.6-12.2 34-25.3 59.5-37.1 95.9-44.4 14.6-3 16.5-3.1 39-3.1 22.4 0 24.4.2 39.1 3.1 18 3.6 36.9 9.9 52.5 17.4 11.4 5.5 27.9 15.4 34.3 20.6 2.1 1.6 7.8 6.3 12.7 10.3 30.3 24.8 59.7 69.3 70.6 106.7 1.2 4.1 2.8 9.5 3.6 12 1.4 4.2 2.1 7.8 4.3 21 2.1 12.4 4 32.1 4 42-.1 10.4-2.1 32.8-4 42.5-.5 2.7-1.4 7.5-1.9 10.5-.6 3-1.9 8.4-3 12-1.1 3.6-3 10.1-4.4 14.5-6.2 20.4-25 55.7-36.5 68.7l-2.4 2.6 7.4 2.3c10.4 3.2 25.7 10.1 34.2 15.4 4 2.5 12.8 6.7 19.5 9.5 25.9 10.4 49.1 24.7 68 42 12.5 11.3 31.9 34.2 40.5 47.6 11.8 18.4 25.1 48.6 29.4 66.4 4.9 20.1 5.7 24.9 7.3 43.5 1.2 14.2.6 43.4-1.1 54.3-4.3 26.4-9.9 46.2-18.5 64.7-1.5 3.3-4.3 9.3-6.2 13.4-6.5 14.1-23.3 37.7-38.1 53.6-8.9 9.4-21.7 21-28.2 25.4-3.6 2.5-8.5 5.9-11 7.6-7.8 5.4-28.5 16.4-38.7 20.6-10.6 4.3-26.2 9-35.8 10.9-13.4 2.5-16.4 2.9-25.5 3.6-14.2 1-14 .8-7.3 8.8 21.4 25.3 37.1 55.3 46.3 88.1 8 28.5 10.9 55.1 9 80.9-.6 8.3-1.5 17.3-2 20.1-.5 2.7-1.4 8.1-2.1 12-1.2 7.3-4 18.3-8.3 32.5-2.2 7.5-12.5 31.8-14.5 34.5-.4.5-2.7 4.5-5 8.9-4.9 9.2-17.4 26.6-26.6 37.2-19.3 22-47.3 43.5-70.6 53.9-21.9 9.9-38.5 15.2-58.3 18.6-3.3.5-6.3 1.2-6.8 1.5-.4.3-12.2.5-26 .5-24.8-.1-25.6-.2-41.3-3.5-33.4-7-60-19-88.5-40-5.2-3.9-12.9-10.3-17-14.2l-7.6-7.3-1.7 17.7c-2.3 22.9-2.9 26.5-6.5 39.7-15.1 55.3-46.6 101.4-90.7 133-23.5 16.8-54.7 30.5-81 35.5-3.3.6-8.2 1.5-10.8 2.1-13.5 2.6-48.3 2.1-68.7-1.1-24.5-3.8-62-19.5-83.2-34.8-4.4-3.1-9-6.4-10.2-7.2-5.5-3.7-26.6-24.5-35-34.5-32.6-39-51.8-88.1-55-140.4-.3-4.6-.8-8.6-1.1-8.9-.3-.3-3.8 2.6-7.8 6.4-26.7 26-66.7 46.4-106.7 54.4-14.8 3-16.6 3.1-40.3 3.1-13.6 0-25.1-.2-25.5-.5-.5-.3-3.5-1-6.8-1.5-13-2.3-24.4-5.1-33.4-8.5-5.2-2-9.9-3.6-10.3-3.6-.4 0-5.8-2.3-12-5.2-11.5-5.3-28.6-15.5-36.8-21.8-2.5-1.9-6.3-4.8-8.5-6.4-11.3-8.6-32.8-31.6-42.5-45.5-2.4-3.5-5.6-8.1-7.1-10.3-1.6-2.1-2.8-4-2.8-4.2 0-.2-2.1-4.1-4.6-8.7-6-10.9-14-29.3-17.1-39.4-5.3-17.4-6.1-20.2-7.2-26.5-.7-3.6-1.6-8.8-2.1-11.5-3.5-18.7-4.3-58.1-1.5-73 .8-4.4 2-10.5 2.5-13.5 2.3-13 8.6-33.8 14.6-48.5 8.8-21.3 25.2-47.8 38.2-61.9 5.5-5.9 5.3-6-8.3-7-41.2-3-75.1-16.2-114.6-44.6-7.4-5.3-26.4-23.9-35.3-34.5-5-6.1-12.6-16.2-16.7-22.5-12.2-18.7-25.8-49.4-30.4-68.6-.9-3.8-2-8.7-2.5-10.9-.5-2.2-1.4-6.8-2-10.3-.5-3.4-1.5-9-2.1-12.3-1.4-8.2-1.4-50.1.1-59.2 2.6-16.5 3.2-19.6 5.2-28.2 4.4-19.2 18.1-53.3 26.2-65.5 1.3-1.9 5.3-8 9-13.5 12.6-19.1 36.2-43.6 54.6-56.6 12.8-9.1 14.7-10.2 28.5-17.2 19.4-9.8 34.6-15.2 54.9-19.7 6.3-1.4 29.2-9.9 31.5-11.7.3-.2-.9-1.8-2.6-3.6-9.2-9.7-24.5-35.4-33.9-56.9-6.6-15.2-12.5-35.3-15.3-52.8-.7-4.1-1.8-9.8-2.4-12.5-1.8-8.2-1.3-53.3.7-64 1-5 2.1-11.3 2.6-14 1.8-10.2 2.2-12.1 3-14.5.5-1.4 2.3-7.2 4.1-13 13.3-43.9 43.6-87 80.9-115.1 26.4-19.9 54.3-32.5 87.5-39.5 15.6-3.3 16.6-3.4 40.5-3.4 24.2-.1 24.7 0 41 3.4 26.6 5.6 50.3 14.7 69 26.6 13.3 8.4 30.9 21.7 37.7 28.3 3.4 3.4 6.5 5.8 6.8 5.5.3-.3 1-5.9 1.5-12.4 2.7-35.2 9.6-60.7 24.5-90.9 9.7-19.7 19.5-34.5 32-48.5 2.2-2.5 5.4-6.1 7-8 3.3-3.9 22.8-21.7 26.1-24 1.2-.8 5.7-4 10-7.1 19.5-13.9 41.9-24.2 67.9-31.2 26.4-7.1 44.5-8.8 69.8-6.7z" fill="#F09"/><path d="m922.2 675.9-.2 127.4-2.7-2.4-2.8-2.4 2.4 2.8c1.4 1.5 2.8 2.4 3.3 1.9.4-.4.7-57.9.5-127.8l-.2-126.9-.3 127.4zm-.4 646.8c.1 45 .3 102.3.5 127.3.1 25 .3-11.8.5-81.8.1-69.9-.1-127.2-.5-127.2-.5 0-.7 36.8-.5 81.7z" fill="#300"/><g stroke-width="0"><path d="M986.5 228.6c-28.1 4-55.2 12.3-75.5 23.1-17.2 9.1-29.9 18.1-45.9 32.1-10.4 9-13 11.9-26.1 28-19.1 23.6-34.9 55.9-42.9 88-3.4 13.2-7.1 37.4-7.1 46 0 7.4-1 13.2-2.2 13.2-.6 0-4.4-3.1-8.5-7-8.6-8-26.1-21.3-37.8-28.6-18.7-11.6-42.5-21-67.7-26.6-14.1-3.1-14.7-3.1-41.3-3.1-26.4 0-27.3 0-41.5 3.1-29 6.2-62.3 20.9-82.5 36.5-2.7 2.1-7.2 5.5-10 7.6-7.4 5.6-24.3 22.5-31.1 31.1-26.4 33.1-43 69.4-49.8 109-7.4 42.7-4.5 80.8 9.4 123.1 3.8 11.6 17.7 41.2 22.9 48.9 8.6 12.7 13.9 20 16.8 23.3 1.8 2 3.3 4.1 3.3 4.6 0 1.1-24 10.9-31.5 12.7-20.3 5.1-27.1 7.1-36 10.6-11.7 4.6-36 16.9-41 20.7-5.3 4-8.4 6.3-14.4 10.4-6.9 4.7-24.9 22.3-34.6 33.8-16.3 19.3-32.6 47.8-41 72-18.5 53.1-18.1 113.9 1.1 164.8 5.8 15.5 16.4 36.6 24.6 49.2 13.6 20.7 36.9 45.1 54.8 57.4 4.7 3.2 9.2 6.4 10 7.1.8.6 6 3.7 11.5 6.7s11.6 6.3 13.5 7.3c5.9 3.3 24 10.1 33.7 12.9 12.1 3.3 30.1 6.2 44.1 7.1 9.4.5 11.2.9 11.2 2.3 0 .9-3.4 5.6-7.5 10.5-25.7 30.7-42.5 67.3-51.1 111.6-2.7 13.6-2.9 16-2.8 40 0 23.2.3 27 2.8 41.5 11.6 67.7 48.3 124.2 103.2 159.2 19.1 12.2 48.4 23.9 72.4 28.9 12.9 2.7 14.7 2.8 40 2.8 25.8 0 26.9-.1 41-3.1 39-8.4 77.8-28.7 105.1-55 4.2-4 8.1-7.3 8.7-7.3 1.2 0 2.2 5.8 2.2 13.2 0 8.5 3.6 32 7 45.5 6.2 24.7 18.1 51.8 32.3 73.4 12.8 19.5 35.8 44 53.1 56.5 12.8 9.2 14.3 10.1 25.6 16.3 21.7 11.7 42.8 19.1 66.7 23.2 16.9 3 50.7 3 67.6 0 26.2-4.5 42.6-10.4 71.5-25.7 10.3-5.5 28.9-19.4 40.2-30.2 9.6-9.1 22.9-24.2 28.6-32.4 22.2-32.4 37.4-69.3 41.9-101.8 1.1-7.8 3.5-33.1 3.5-36.6 0-1.8 4.2 1 12.6 8.4 30.7 27.1 64.2 44.3 102.4 52.5 14.1 3 15.2 3.1 41 3.1 25.3 0 27.1-.1 40-2.8 17.6-3.7 37.4-10.6 57.9-20.4 7.3-3.4 21.9-13.1 33.6-22.2 34.7-26.9 63-68.5 76-111.4 1.9-6.5 3.7-12.2 3.9-12.5.3-.4 1.8-8.5 3.5-18.1 5.2-29.6 5.2-61.3.1-87.9-4.1-21.8-14.6-52.5-23.1-67.6-1.5-2.8-4-7.3-5.6-10-3.9-7.1-14-21.9-18.8-27.5-8.3-9.9-10.5-12.9-10.5-14.3 0-1.1 2.5-1.6 11.3-2.1 31-2 60.6-10.6 87-25.2 29.6-16.4 48.7-32.6 69.5-58.8 5.3-6.7 19.6-28.7 22.1-34.1 1.3-2.8 4.2-8.8 6.4-13.5 25.4-54.4 28.2-123.9 7.3-182-8.3-23.1-23.7-50.3-39.3-69.5-9.6-11.9-29.9-31-42.2-39.8-13.5-9.6-31.7-19.5-48.1-26.1-6.3-2.5-15.5-7-20.5-10-11.5-6.9-18.5-10-31-14.1-11.2-3.6-13-5.2-9.8-8.7 3.7-4 14.7-21 20-30.8 17.2-32 26.3-63.9 29.3-102.4 3.2-41.1-8.2-93.4-28.2-129.1-21-37.4-44.7-62.8-79.2-85-18.8-12.1-44.9-22.5-69.6-27.7-14.2-3.1-15.1-3.1-41.5-3.1-26.5 0-27.3 0-41 3.1-33.1 7.3-60.1 19.6-87.1 39.7-4.4 3.3-10.6 7.8-13.8 10-3.2 2.2-7.4 5.3-9.3 6.9-2.5 2.1-3.7 2.6-4.5 1.8-.6-.6-1.5-6.2-2-12.4-2.5-33.2-9-58.1-23-87.6-13.7-29.2-35.7-57.8-59.5-77.5-4.8-4-26.8-19.7-27.6-19.7-.2 0-5.1-2.6-10.8-5.8-15.9-8.8-38.6-16.6-62.4-21.4-7.8-1.6-14.8-2.1-31.5-2.3-11.8-.2-22.8-.1-24.5.1zm33 103.9c12.2 1 25.6 4.9 37.9 10.8 30.3 14.7 53.4 41.6 64 74.7 5.5 17 6.1 20.9 6.1 41s-.6 24-6.1 41c-5.2 16.3-13.3 30.9-24 43.7l-4.4 5.1v116.4c0 63.9-.4 116.8-.8 117.3-.4.6-4.1 2.4-8.2 3.9-14.6 5.6-33.7 15.8-48 25.5-21.5 14.7-48.2 39.1-61.9 56.6-3.5 4.4-6.9 8.3-7.6 8.8-1 .5-2.8-1.9-6.6-8.5-19.4-34.2-45.4-60.8-75.1-76.7-25.1-13.6-51.1-19.4-86.8-19.4-22.5 0-34.7 1.3-50.7 5.4-21 5.4-34.9 11.2-56.7 23.7l-7.9 4.5-6.1-6.4c-3.3-3.5-15.1-16-26.1-27.7l-20-21.2h-4.6c-9.2 0-27.1-4.1-39-9-23.1-9.4-45.1-28.8-57.8-51-12.2-21.2-18.2-43.4-18.2-67 0-55.3 33.9-104.1 84.2-121.3 23.3-8 56.1-7.5 76.2 1.2 19.5 8.5 28.1 14.1 41.3 27.1 22.7 22.1 36.2 51 38.3 81.4l.7 11.4 15.5 16.3c8.5 9 20.6 21.8 26.9 28.4 6.3 6.6 22.1 23.3 35 37 12.9 13.7 28.7 30.4 35 37 6.3 6.6 21.9 23 34.5 36.3l23 24.4.3-127.8.2-127.8-3.9-4.1c-6-6.1-15-20.8-19.7-32-17.8-41.9-13.9-87.2 10.7-125 8.2-12.7 21.7-26.4 34-34.7 9.2-6.2 25.8-13.9 35.4-16.4 6.9-1.9 26.8-4.3 30.5-3.9 1.4.2 6.1.7 10.5 1zM1330.6 485c12.6 3.2 19.7 7.3 29.4 17.1 15.2 15.4 22.7 32 27.7 61.4 2.1 12.3 2.4 57.4.5 73-7.8 61.9-21.8 113.6-50.2 184.4-11 27.5-15.8 38.8-24 56.6-1.8 3.8-4.9 10.8-7 15.5-6.4 14.5-32.8 66.7-42.1 83.2-4.9 8.7-10.5 18.8-12.6 22.5-2 3.8-5 9-6.7 11.8-2.9 4.7-3.1 5.5-2.8 14 .6 21.6 8.5 49.6 17.1 60.4 3.3 4.1 10.8 8.6 16.1 9.6 4.9.9 16-1.1 22.5-4 9.6-4.2 19.6-12 33.1-25.7l13.1-13.3-.9-8.5c-1-9.2-.3-37.7 1.3-50.5 1.5-11.8 4.7-26.8 8.1-37.5 8.7-27.2 26-57.2 43.7-75.4 7-7.3 22.7-20.2 32.5-26.8 12.1-8.3 34.2-17 52-20.5 11.9-2.4 43.6-2.4 53.5 0 36.2 8.7 61.1 34 68.7 70 1.8 8.9 1.8 30.6-.1 42.4-4.3 26.2-16.1 48.9-36.1 68.9-20.7 20.7-58.4 39.3-105.9 52.3-9.2 2.5-14.1 4.4-14.3 5.3-.5 2.4 8.2 13.2 14.5 18.1 12.1 9.3 28 13.3 48.8 12.4 14.4-.7 23.9-3.1 34.5-8.9 13.4-7.3 32.3-25.3 49.7-47.4 8.8-11.1 14.1-14.4 22.9-14.4 8.8 0 13 2.8 17.4 11.4l3.5 6.9v15.6c0 11.8-.4 17.2-1.8 22.1-7.8 28.6-36.7 60-69 75-10.5 4.8-27.8 10.5-38.7 12.6-18.2 3.5-52.4 3.5-72.5-.1-25.9-4.5-55.1-19.6-71-36.6-2.8-3-7-8-9.5-11.1-3.7-4.8-4.7-5.5-6-4.5-.8.6-5.1 4.4-9.5 8.2-39.5 35-70.2 49.1-102.3 47.1-32.1-2-57.3-20.6-75.8-56l-4.1-7.8-3.9 4.7c-18.5 22.7-40.2 41.6-56.9 49.6-14.9 7.1-35.6 10.7-55.2 9.5-38.4-2.3-74.4-32.1-88.1-73.1-5.4-15.8-6.5-23.2-6.9-45.5-.2-11.2-.5-20.5-.7-20.7-.3-.3-20.3 1.6-36.5 3.5l-6.4.7-3.3 12c-9 32.6-22.6 55.9-47.3 80.6-27.4 27.3-52.3 39.1-88.5 41.9-33.2 2.5-66.6-7.1-92.2-26.7-7.8-6-21.3-19.4-26.7-26.6l-2.9-3.8-3.1 2.5c-1.8 1.4-7.5 5.7-12.8 9.6-62.9 45.5-145.9 58-204.8 30.9-32.5-15-59.7-47.3-71.1-84.3-5.4-17.7-6.5-26.2-6.4-49.3.2-33.1 4-56.9 13.1-81.3 17.1-45.7 46.3-80.2 85.6-101.3 31.1-16.6 71.3-20.6 101.1-10 17.7 6.3 31.5 19.3 41.4 38.8 5.1 10.2 7.2 18.4 8.2 31.5 3.9 54-26.5 93.9-62.3 81.9-10.5-3.5-17.3-10.6-19.1-19.8-.7-4.1 1.7-19.6 4.6-29.6 2.9-9.8 2.9-21.6 0-27.2-3.8-7.3-13-9.9-23.8-6.8-8.5 2.4-13.6 5.7-21.7 13.9-14.3 14.5-23.3 34.2-29.4 64.6-2.5 12.5-2.5 48.2.1 60 7.8 36.1 28.5 53.3 66.1 54.8 14.7.5 24.8-1.2 40.8-6.9 19.1-6.9 39.9-19.2 58.9-35 8.1-6.8 8.8-7.6 8.3-10.4-.2-1.7-.7-10.2-1.1-19-1.9-48.4 12.1-97.2 38.2-133 12.8-17.6 32.8-35.4 51.9-46.2 10.1-5.7 30.2-13.2 41.5-15.6 12.4-2.7 31.4-3.8 43.6-2.7 22.1 2.1 38.1 7.3 54.5 17.6 26.6 16.9 50.5 51.4 59.3 86 2.3 9.1 4.6 21.5 4.6 25.1 0 1.7.5 3.5 1 3.8 1 .6 15.7-.8 26.5-2.6 3.3-.5 8.7-1.5 12-2 3.3-.6 9.3-1.8 13.2-2.7l7.3-1.6 8.1-15c13.8-25.4 31.3-46.6 53.4-65.1 15.5-12.9 20.4-16.3 33.5-23.4 20.7-11.2 39-17.6 62-21.5l12.5-2.2 1.2-12.5c7.1-71.3 20.7-135.9 42.4-201.4 9.9-29.7 15.4-43.5 23.5-59.2 16.2-31.3 35-51.9 56.9-62.4 16.6-7.9 32.5-9.9 48.1-5.9zm114.9 29.6c23.8 15.1 43.8 40.6 51.5 65.8 8.7 28.2 9.6 50.1 3 76.1-4.7 18.7-11 32.4-21.5 46.3-6.5 8.6-24.7 25.5-32.5 30.1-8.1 4.8-16.6 9.1-18 9.1-1.4 0-1.2-3.7.6-9.5 3.3-10.9 11.8-52.3 14-68.4 3.7-27.1 4.6-43.2 4.1-71.6-.6-34.2-2.6-49.2-9.7-71.2-1.7-5-3-9.9-3-10.8 0-2.3 3-1.2 11.5 4.1zm-507.4 646.6c9.5 15.6 27.4 34.9 41.5 45 21 14.9 46.3 24.9 70.9 27.9 12.3 1.5 38.7.6 51.7-1.7 21.5-3.8 47-14.2 61.5-25 3.9-3 7.8-5.4 8.6-5.4.8 0 2.2.9 3.2 2s6.2 4.9 11.5 8.5c13.4 8.9 30.9 16.3 45.5 19.4 26.6 5.5 56.8 3.6 82.8-5.4 2.2-.8 4.7-1.1 5.4-.6.8.4 7.1 6.9 14.1 14.4s21 22.4 31.1 33.2l18.3 19.5h4.7c13.5 0 34.7 6 49.8 14.1 13 7.1 15.1 8.7 26.7 20.2 12.9 13 23 27.5 28.3 40.3 8 19.6 12 44.1 10.3 62.2-3.4 35-14.4 58.9-37.9 82.4-13.5 13.4-22.8 19.8-38.1 26.2-13.4 5.7-22.2 7.6-38.6 8.3-20.7.9-35.2-1.9-53.1-10.2-12-5.6-18.7-10.1-30.7-20.4-11.1-9.6-14.9-14.3-24.1-29.5-9.9-16.6-15.4-33.8-17.4-55.4l-.9-10.2-16.1-17.3c-17.2-18.3-34.8-37-68.6-72.7-22.1-23.3-37.3-39.4-67-71.1l-18-19.2-.3 127.3-.2 127.3 5.3 6.6c13.9 17.5 22.9 36.4 27.8 58.6 2.1 9.6 1.8 41.1-.5 51-4.1 17.9-11.3 35-20.2 48.1-5.2 7.8-19.1 22.4-27.4 28.8-22.2 17.3-52.9 26.3-80.2 23.6-28.3-2.9-52.5-14.4-72.3-34.4-17.4-17.6-26.4-33.1-33.4-57.6-11.4-40.3-2-84.7 24.8-117.8l5.1-6.2v-127.1c0-69.9-.4-126.9-.8-126.7-1 .4-18.2 18.3-50.7 52.8-12.6 13.5-27.9 29.7-34 36-6 6.3-21.3 22.5-34 36-12.6 13.5-28 29.7-34 36-17.7 18.4-17.5 18-17.5 25.3 0 7.3-3.1 24.5-6.1 33.7-3 9-10.9 25.3-15.8 32.5-5 7.3-18.1 20.8-27.7 28.5-13.1 10.5-34.5 19.9-51.4 22.6-23 3.7-44.8.7-67.5-9.3-23.7-10.5-47.8-34.8-59.8-60.3-7-15-11.7-36.9-11.8-54.6 0-59.3 37.2-110.3 90.8-124.3 10.2-2.7 18.6-4.1 24.1-4.1 4.5 0 4.6-.1 18.1-14.3 7.5-7.8 17-17.8 21.1-22.2 4.1-4.4 13.4-14.2 20.7-21.8l13.3-13.8 9.8 3.4c39.3 14 87.3 14 128.9.2 32.5-10.9 64.9-33.2 88-60.8 3.5-4.2 7.1-7.7 7.8-7.7.7 0 2.8 2.4 4.6 5.2z"/><path d="M1303.3 558.3c-5 2.8-12.5 16.3-17.7 32.2-6 18-15.5 59.7-21.1 93-4.6 27.4-6 38.8-13.5 112-.5 5.5-1.2 11.6-1.5 13.5-.8 5.8-5.6 80-5.3 82.3.5 3.8 25.7-56.2 38.4-91.6 23.7-65.8 35.3-114.4 39.5-164.7 3.2-39.2-3.7-78.1-13.9-78-1.5.1-3.7.6-4.9 1.3zM1489 905c-7.5 1.6-15 6-22.6 13.3-13.8 13-23.3 31.7-28.4 56-2.5 11.6-4.4 33.7-3.1 35 1.4 1.4 13.5-1.6 24.4-5.9 43-17 65.6-40.8 65.7-69.1 0-12.5-5.4-22.9-14.2-27.4-4.6-2.4-15.2-3.3-21.8-1.9zm-341 1.3c-1.4.6-5 2.2-8 3.5-16 7-31.3 19.2-43.2 34.2-7.6 9.7-18.8 29.7-24.3 43.5-12.1 30.5-14.9 70.3-6.5 92.8 3.1 8.4 7.6 13.7 14.5 17.2 5.3 2.7 6.8 3 15.5 3 9.1 0 10-.2 17.6-3.9 6.3-3.1 9.8-5.8 17.5-13.5 5.2-5.3 13.5-15 18.4-21.5l8.9-11.9-1.2-9.1c-5.7-43-7.1-80.6-4.6-125.9.5-10.4.4-10.7-4.6-8.4zm-365.8 5.3c-9.5 2.5-16.3 6.5-24.3 14.2-6.7 6.3-8.7 9.1-13.5 18.4-11.3 22.2-15.4 40.1-15.4 67.5.1 36.4 6.1 56.2 22 72.4 10.5 10.7 20.8 14.5 35 12.9 12.4-1.4 20.3-4.9 29.3-13 12-10.8 22.6-30.9 26.2-50 .8-4.1 1.5-7.8 1.5-8.1 0-.3-3.3-3.3-7.3-6.6-17.5-14.4-31.2-37.4-36.6-61.5-2.3-10.3-3.1-28.6-1.8-40.6l.8-7.2-5.3.1c-2.9 0-7.7.7-10.6 1.5z"/></g><path d="M1092.5 665c0 64.1.1 90.3.2 58.3.2-32.1.2-84.5 0-116.5-.1-32.1-.2-5.9-.2 58.2zm0 576.2c-.3.7-.4 58.2-.3 127.8l.3 126.5.3-127.4.2-127.4 2.8 2.4 2.7 2.4-2.4-2.8c-2.8-3.1-3-3.2-3.6-1.5z" fill="#330"/><path d="M922.8 677c-.2 70.4 0 128 .5 128 .4 0 .7-57.6.7-128s-.2-128-.5-128-.6 57.6-.7 128zm-1.3 563.1c-.5.8-.4 1 .3.5.9-.5 1.3 30.8 1.4 127.1l.3 127.8.2-127.4c.2-73.7-.1-127.9-.6-128.4s-1.2-.4-1.6.4z" fill="#630"/><path d="M1091.5 664.5c0 64.3.1 90.5.2 58.2.2-32.4.2-85 0-117-.1-32-.2-5.6-.2 58.8zm-167 12.5c0 70.7.1 99.6.2 64.2.2-35.3.2-93.1 0-128.5-.1-35.3-.2-6.4-.2 64.3zm0 690.5c0 70.4.1 99.1.2 63.7.2-35.4.2-93 0-128-.1-35-.2-6.1-.2 64.3zm167 1c0 70.9.1 100.1.2 64.8.2-35.3.2-93.3 0-129-.1-35.6-.2-6.8-.2 64.2z" fill="#C93"/><path d="M749.3 624.2c.1.9 4.5 6.1 9.7 11.5 5.2 5.4 11.7 12.3 14.4 15.3 7.1 7.9 30.6 31.9 30.6 31.2 0-.3-5.1-5.8-11.2-12.2-20.3-20.8-42.3-44.3-43-45.9-.7-1.4-.8-1.4-.5.1zm568.7 604.5c1.4.3 3.6 1.7 4.9 3.1 1.4 1.5 4.5 4.9 7 7.7 7.3 8.2 30.1 31.3 30.1 30.6 0-.3-3.8-4.5-8.6-9.1-4.7-4.7-13.5-14-19.6-20.8-9.1-9.9-11.6-12.2-13.7-12.1l-2.6.2 2.5.4zm-37.4 252.3c2.8 5.7 13.3 21.2 17.3 25.3 4.6 4.9 19.1 17 19.1 16 0-.4-2-2.2-4.3-4-9.6-7.2-16.3-14.3-22.8-24-3.8-5.6-6.9-10.6-6.9-11 0-.4-1-1.9-2.1-3.3l-2-2.5 1.7 3.5z" fill="#F93"/><path d="M990.5 336c-.3.5-2.6 1-5 1s-4.7.4-5 1c-.3.5-1.7 1-3.1 1-1.3 0-3.2.4-4.2.9-1.9 1-6.6 3-9.7 4.1-4.6 1.7-12.1 5.6-13.9 7.2-1.1 1-2.3 1.8-2.8 1.8-1.2 0-14.6 10.4-20.6 16-7.4 6.9-19.1 24.8-25.2 38.5-1.2 2.7-2.6 5.8-3.1 6.7-.5 1-.9 2.7-.9 3.7 0 1.1-.4 2.3-1 2.6-.5.3-1 1.9-1 3.4s-.4 3.1-.9 3.6c-.5.6-1.2 3-1.5 5.5-.8 5.1-2.6 23.7-2.6 26 0 7.9 2.9 29.8 4.1 30.6.5.3.9 1.6.9 2.9 0 1.3.5 3.7 1.1 5.2.6 1.5 1.5 3.7 1.9 4.8.4 1.1 1.2 3.2 1.9 4.7.6 1.6 1.6 4 2.2 5.5 3.6 8.9 14.4 25.7 19.8 30.7l3.1 3v130.7c0 98.4-.3 131-1.2 131.5-.7.4-3.7-2.1-7.7-6.7-3.6-4.1-12.3-13.2-19.2-20.4-6.9-7.1-14.8-15.5-17.5-18.5-2.7-3-10.8-11.6-18-19-7.2-7.4-15.3-16-18-19-2.7-3-10.3-11.1-17-18-6.6-6.9-14.3-15-17-18-2.7-3-10.8-11.6-18-19-7.2-7.4-15.3-16-18-19-2.7-3-9.2-9.9-14.4-15.3l-9.5-9.8-.7-7.7c-.4-4.2-1-10.6-1.4-14.2-.3-3.6-1-6.9-1.5-7.5-.5-.5-.9-2.1-.9-3.6s-.4-3.1-1-3.4c-.5-.3-1-1.9-1-3.5s-.4-3.2-1-3.5c-.5-.3-1-1.4-1-2.4 0-2.5-11.5-24.9-15-29.3-1.7-2-3-4-3-4.5-.1-.4-1.9-2.6-4-4.8-2.2-2.2-4-4.5-4-5 0-.6-2-2.4-4.3-4.2-2.3-1.8-5.5-4.5-7.2-6.1-3.5-3.3-18-13.2-19.3-13.2-.8 0-8.3-3.5-15.4-7.1-1-.5-2.7-.9-3.7-.9-1.1 0-2.3-.5-2.6-1-.3-.6-1.9-1-3.4-1s-3.1-.4-3.6-.9c-3.1-2.9-44.9-2.9-48 0-.5.5-2.2.9-3.7.9-1.6 0-3.6.4-4.6.9-.9.5-2.8 1.3-4.2 1.8-10.4 4.1-22.6 10.1-24 11.8-.7.8-1.7 1.5-2.2 1.5-1.1 0-7.8 5.1-12.8 9.8-1.9 1.8-4.7 4-6.2 5-1.6.9-2.8 2.1-2.8 2.7 0 .5-1.2 2.4-2.8 4-1.5 1.7-3.1 3.8-3.7 4.7-.5.8-2.4 3.5-4.1 5.9-4.6 6.4-10.2 16.5-12.7 22.9-.5 1.4-1.3 3.3-1.8 4.2-.5 1-.9 2.5-.9 3.3 0 .8-.4 2.3-.9 3.3-1.4 2.8-3.1 8.7-3.1 10.8 0 1.1-.4 2.4-.9 3-3.1 3.2-3.1 47.7 0 50.8.5.6.9 1.9.9 3 0 2.1 1.7 8 3.1 10.8.5 1 .9 2.5.9 3.3 0 .8.4 2.3.9 3.3.5.9 1.9 3.9 3.1 6.7 1.2 2.7 2.7 5.9 3.3 7 .6 1.1 1.9 3.7 3 5.7s3.7 6 5.9 8.8c2.1 2.8 3.8 5.4 3.8 5.8 0 2.1 22.7 22.7 28.5 25.8 1.1.6 3.8 2.1 6 3.4 2.2 1.3 5.8 3.2 8 4.3 2.2 1.1 4.8 2.3 5.7 2.8 1 .5 2.7.9 3.7.9 1.1 0 2.3.4 2.6 1 .3.5 1.7 1 3 1s2.7.4 3 1c.3.5 2.1 1 4 1s3.7.4 4 1c.3.5 3 1 5.9 1 2.9 0 7.9.5 11.1 1.1 5.9 1.1 5.9 1.1 20.5 16.2 8 8.4 16.8 17.7 19.5 20.7 2.8 3 7.8 8.3 11.1 11.9 5.8 6 6.3 6.4 7.8 4.8.9-.9 3.4-2.4 5.4-3.4 2-.9 3.9-1.9 4.2-2.2.3-.4 2.3-1.5 4.5-2.7 2.2-1.1 4.9-2.5 6-3.1 1.1-.6 3.1-1.5 4.5-2.1 3.1-1.2 11.9-5.1 14.2-6.3 1-.5 2.7-.9 3.7-.9 1.1 0 2.3-.5 2.6-1 .3-.6 1.7-1 3-1s2.7-.5 3-1c.3-.6 2.1-1 4-1s3.7-.5 4-1c.3-.6 1.9-1 3.5-1s3.2-.5 3.5-1c.3-.6 2.8-1 5.4-1 2.6 0 5.1-.4 5.7-.9 2-2 52.3-3.9 55.9-2.2 1.1.6 4.7 1.2 8 1.5 10.5.9 16 1.8 16.9 2.7.6.5 2.5.9 4.2.9 1.8 0 3.6.4 3.9 1 .3.5 1.9 1 3.5 1s3.2.4 3.5 1c.3.5 1.5 1 2.6 1 1 0 2.7.4 3.7.9.9.5 3.1 1.4 4.7 2.1 1.7.7 3.8 1.6 4.7 2.1 1 .5 2.5.9 3.3.9.8 0 1.5.4 1.5 1 0 .5.9 1 2 1s2 .4 2 1c0 .5.9 1 2 1s2 .4 2 1c0 .5.9 1 2 1s2 .4 2 1c0 .5.6 1 1.3 1 .7 0 2.3.9 3.5 2 1.2 1.1 2.5 2 3 2 .4 0 1.7.8 2.8 1.8 1.1 1.1 2.5 2.1 3 2.3 5.3 2 40.3 37 42.3 42.3.2.5 1.2 1.9 2.3 3 1 1.1 1.8 2.5 1.8 3.2 0 .7.4 1.4.8 1.6 1.2.4 6.6 8.7 8.3 12.5.8 1.8 1.7 3.3 2.1 3.3.5 0 .8.6.8 1.2 0 .7.7 2.2 1.6 3.3 1.4 1.9 1.5 1.9 4.7-1.5 1.8-1.9 4.5-5.3 6.2-7.5 3.6-4.9 30.5-31.6 35.4-35.3 2-1.5 5-3.9 6.6-5.4 1.7-1.6 3.4-2.8 3.8-2.8.4 0 2.2-1.3 4-3 1.8-1.6 3.8-3 4.5-3 .6 0 1.2-.4 1.2-.8 0-.5 1.2-1.5 2.8-2.3 1.5-.8 3.6-2.2 4.6-3.2 1.1-.9 2.6-1.7 3.3-1.7.7 0 1.3-.4 1.3-.9s.8-1.1 1.8-1.4c1.7-.6 7.3-3.8 8.2-4.7.6-.6 21.4-10.8 24.8-12.1 2.2-.9 3.7-1.5 10-4.1l3.2-1.3V546.9l4.6-5.7c2.5-3.1 5.2-6.5 6-7.5.8-.9 1.4-2.1 1.4-2.6s.6-1.4 1.4-2.1c1.3-1 9.1-16.2 11.8-23 .6-1.4 1.4-3.3 1.9-4.2.5-1 .9-2.7.9-3.7 0-1.1.5-2.3 1-2.6.6-.3 1-1.9 1-3.4s.4-3.1.9-3.7c1.6-1.6 2.3-11.2 2.3-29.4s-.7-27.8-2.3-29.5c-.5-.5-.9-2.1-.9-3.6s-.4-3.1-1-3.4c-.5-.3-1-1.7-1-3s-.4-2.7-1-3c-.5-.3-1-1.4-1-2.5 0-1.6-2-6.3-5.3-12.5-.6-1.1-2.1-4.1-3.4-6.7-1.3-2.5-3.1-5.2-3.8-5.8-.8-.7-1.5-1.9-1.5-2.6 0-.8-.4-1.4-.8-1.4s-1.6-1.4-2.6-3.2c-3.2-5.4-15.7-17.8-24.6-24.4-7.3-5.5-19.4-12.2-28-15.6-1.4-.6-3.3-1.4-4.2-1.9-1-.5-2.8-.9-4.1-.9-1.3 0-2.7-.4-3.3-.9-1.5-1.4-9.6-2.2-27.6-2.7-10.9-.3-16.8-.1-17.3.6zm447.3 178.2c.7.7 1.2 2.4 1.2 3.9s.5 3.1 1 3.4c.6.3 1 1.7 1 3s.5 2.7 1 3c.6.3 1 2.4 1 4.5s.5 4.2 1 4.5c.6.3 1 2.4 1 4.5s.5 4.2 1 4.5c.6.3 1 3.3 1 6.5s.5 6.2 1 6.5c.6.3 1 5 1 10.5s.4 10.2 1 10.5c.6.4 1 7.5 1 18s-.4 17.6-1 18c-.6.4-1 6.3-1 14.5s-.4 14.1-1 14.5c-.5.3-1 3.9-1 8s-.4 7.7-1 8c-.5.3-1 3.4-1 6.9 0 3.4-.4 6.6-.9 7.1-.9.9-1.3 3.8-2.7 16-.3 2.7-1 5.4-1.5 5.9-.5.6-.9 2.7-.9 4.7 0 2.1-.4 4.1-1 4.4-.5.3-1 2.4-1 4.5s-.4 4.2-1 4.5c-.5.3-1 2.1-1 4s-.4 3.7-1 4c-.5.3-1 2.1-1 4s-.4 3.7-1 4c-1.3.8-1.3 6.5 0 6.5.5 0 2.6-1 4.7-2.2 2.1-1.1 5.5-3.1 7.7-4.2 2.1-1.2 5.8-3.8 8.1-5.9 2.4-2 4.6-3.7 4.9-3.7 2 0 16-15.8 22.3-25 6.2-9.1 13.3-23 13.3-26 0-1.1.5-2.2 1-2.5.6-.3 1-1.9 1-3.5s.4-3.1.9-3.4c.8-.6 1.4-3 2.7-11.4.3-2 1-4.6 1.5-5.7 1.3-2.7.5-37.6-1-44-.7-2.8-1.5-6.5-1.8-8.3-.3-1.8-.9-3.5-1.4-3.8-.5-.3-.9-1.8-.9-3.4 0-1.6-.4-3.2-1-3.5-.5-.3-1-1.4-1-2.5 0-1.6-1.5-5.2-5.2-12.4-10.2-19.9-24.1-35.3-43.5-48.4-6-4.1-8.9-5.4-6.5-3zm-508.8 650c-4.6 5.7-21.2 22.2-27.5 27.4-8 6.7-14.4 11.4-15.5 11.4-.6 0-1 .4-1 .8 0 .5-1.2 1.5-2.7 2.3-1.6.8-3 1.6-3.3 1.9-.9.9-6.5 4-10.2 5.8-2.1.9-3.8 2-3.8 2.4 0 .5-.6.8-1.4.8-1.1 0-7.6 2.9-15.8 7.1-1 .5-2.7.9-3.7.9-1.1 0-2.3.4-2.6 1-.3.5-1.7 1-3 1s-2.7.4-3 1c-.3.5-1.7 1-3 1s-2.7.4-3 1c-.3.5-2.1 1-4 1s-3.7.4-4 1c-.3.5-2.1 1-4 1s-3.7.4-4 1c-.3.5-3.3 1-6.5 1s-6.2.4-6.5 1c-.4.6-11 1-28.5 1s-28.1-.4-28.5-1c-.3-.6-2.8-1-5.5-1s-5.2-.5-5.5-1c-.3-.6-2.1-1-4-1s-3.7-.5-4-1c-.3-.6-2.1-1-4-1s-3.7-.5-4-1c-.3-.6-1.7-1-3-1s-2.7-.5-3-1c-.3-.6-1.7-1-3-1s-2.7-.5-3-1c-1.9-3.1-5.6-.6-19.1 13.2-7.6 7.9-15.7 16.3-17.8 18.8-2.2 2.5-11 11.8-19.6 20.7l-15.6 16.1-5.9 1.1c-3.2.6-8.2 1.1-11.1 1.1-2.9 0-5.6.4-5.9 1-.3.5-2.1 1-4 1s-3.7.4-4 1c-.3.5-1.7 1-3 1s-2.7.4-3 1c-.3.5-1.5 1-2.6 1-1 0-2.7.4-3.7.9-.9.5-3.5 1.7-5.7 2.8-2.2 1.1-5.8 3-8 4.3-2.2 1.3-4.9 2.8-6 3.4-7.9 4.3-22.7 18.4-30.3 28.9-5.6 7.6-10.7 15.7-11.8 18.7-.8 2-4.4 10.1-5.5 12.2-.5 1-.9 2.5-.9 3.3 0 .8-.4 2.3-.9 3.3-1.4 2.8-3.1 8.7-3.1 10.8 0 1.1-.4 2.4-.9 3-2.9 2.9-3 44.3-.1 50.9.9 2.1 1.8 5.8 2.7 11.3.3 1.8.9 3.5 1.4 3.8.5.3.9 1.4.9 2.6 0 2.8 10.5 24 14.6 29.3 1.9 2.5 3.4 4.9 3.4 5.3 0 .8 21.8 22.2 24.1 23.7.9.5 4.4 2.9 7.7 5.3 3.4 2.3 6.5 4.2 7.1 4.2.5 0 2.9 1 5.3 2.1 2.3 1.2 5.3 2.6 6.6 3 4.1 1.6 7.7 3.1 9.4 4 1 .5 2.9.9 4.2.9 1.4 0 2.7.4 3 .9.5.8 16.5 2.3 24.6 2.3 7.6 0 23.1-1.5 23.6-2.3.3-.5 1.8-.9 3.5-.9 1.6 0 3.7-.4 4.7-.9 1.8-.9 6.4-2.9 9.7-4.1 19.6-7.5 41.1-24.3 52.5-41 1.3-1.9 2.7-3.7 3-4 .8-.7 5.2-9.2 11-21.1 1.1-2.2 2-4.7 2-5.5 0-.8.4-2.2.9-3.2 1.5-3 3.1-8.8 3.1-11.3 0-1.4.4-2.9.9-3.5.9-.9 1.6-6 2.7-19.9.3-3.8 1.2-7.8 1.9-8.8.7-1.1 7.3-8.1 14.7-15.6 7.3-7.5 15.5-16.1 18.2-19.1 2.7-3 10.4-11.1 17-18 6.7-6.9 14.3-15 17-18 2.7-3 10.4-11.1 17-18 6.7-6.9 14.3-15 17-18 2.7-3 10.4-11.1 17-18 6.7-6.9 14.3-15 17.1-18 14.7-16.4 37.5-39.1 38.4-38.6.8.5 1.1 38.2 1.1 131 0 118.1-.1 130.5-1.6 131.7-2.3 1.9-11.7 14.6-14.8 19.9-2.6 4.6-7.1 13.7-8.7 17.7-.5 1.3-1.3 3.3-1.8 4.5-.5 1.3-1.5 4.1-2.2 6.3-.6 2.2-1.5 4.9-2 6-1.2 3.1-3.9 25-3.9 32 0 8.2 2.9 30.3 4.1 31.1.5.3.9 1.8.9 3.4 0 1.6.5 3.2 1 3.5.6.3 1 1.5 1 2.6 0 1 .4 2.7.9 3.7.5.9 1.3 2.8 1.9 4.2 3.6 8.9 10.3 21.3 13.3 24.6 1 1.1 1.9 2.4 1.9 2.8 0 1.1 5.9 8.4 10.5 13.1 12.9 13 32 24.8 48 29.6 2.2.6 4.9 1.5 6 2 4 1.6 10.3 2.1 27.9 2.6 11.7.2 18.3 0 19-.7.5-.5 2.7-1 4.7-1 2.1 0 4.1-.5 4.4-1 .3-.6 1.7-1 3.1-1 1.3 0 3.3-.5 4.4-1 1.1-.6 2.9-1.5 4-2 1.1-.6 2.6-1 3.4-1 1.3 0 9.4-3.8 10.6-5 .6-.6 4.6-2.9 8.1-4.7 1.5-.7 3.2-2 3.9-2.8.7-.8 1.7-1.5 2.3-1.5.5 0 5.7-4.6 11.5-10.3 11.9-11.7 17.8-19.7 24.4-33 5.1-10.5 5.8-12 5.8-13.3 0-.8.5-2.3 1-3.4.6-1.1 1.5-2.9 2-4 .6-1.1 1-3.3 1-4.9 0-1.7.4-3.2.9-3.5 1.5-1 2.4-11.7 2.4-29.6-.1-18.3-.9-27.8-2.4-29.5-.5-.5-.9-2.1-.9-3.6s-.4-3.1-1-3.4c-.5-.3-1-1.5-1-2.6 0-1-.4-2.7-.9-3.7-.5-.9-1.3-2.8-1.9-4.2-5.1-12.9-14.5-28.4-23.5-38.4-1.6-1.9-1.7-9.2-1.5-132.4l.3-130.3-9.5.5c-15.7.9-36.8.1-38.5-1.5-.5-.5-2.8-.9-5.1-.9-2.4 0-4.6-.5-4.9-1-.3-.6-1.9-1-3.5-1s-3.2-.5-3.5-1c-.3-.6-1.7-1-3.1-1-1.3 0-3.2-.4-4.2-.9-.9-.5-3-1.4-4.7-2.1-1.6-.7-3.8-1.6-4.7-2.1-1-.5-2.5-.9-3.4-.9-.9 0-2.8-.8-4.2-1.8-1.5-1-4.9-2.9-7.7-4.2-2.7-1.4-5.2-2.7-5.5-3-.3-.3-1.7-1.1-3.2-1.9-1.6-.8-2.8-1.8-2.8-2.3 0-.4-.6-.8-1.3-.8-.7 0-2.2-.8-3.3-1.8-1-.9-3.6-3-5.8-4.6-4.6-3.4-25.6-24.6-25.6-25.9 0-.4-1.3-2.2-3-4-1.6-1.8-3-3.8-3-4.5 0-.6-.4-1.2-.8-1.2-.5 0-1.5-1.2-2.3-2.7-1.6-3.1-4.1-6.3-4.9-6.3-.3 0-2.1 1.9-4 4.2zm235.2 46.2c-4 3-11.6 7.5-17 10.1-5.3 2.6-10.5 5.1-11.4 5.6-1 .5-2.7.9-3.7.9-1.1 0-2.3.4-2.6 1-.3.5-1.7 1-3 1s-2.7.4-3 1c-.3.5-1.7 1-3 1s-2.7.4-3 1c-.3.5-2.4 1-4.5 1s-4.2.4-4.5 1c-.3.5-2.6 1-5 1s-4.7.4-5 1c-.3.5-1.5 1-2.6 1-2.1 0 5.6 8.7 33.2 37.4 6.9 7.2 14.8 15.6 17.5 18.6 2.7 3 10.3 11.1 17 18 6.6 6.9 14.3 15 17 18 2.7 3 10.3 11.1 17 18 6.6 6.9 14.3 15 17 18 2.7 3 10.8 11.6 18 19 7.2 7.4 14.9 15.5 17 18 2.1 2.4 6.8 7.5 10.4 11.3l6.5 6.9.7 9.6c.9 13.3 1.8 19.5 2.9 20.6.5.6.9 2.5.9 4.2 0 1.8.5 3.6 1 3.9.6.3 1 1.5 1 2.6 0 1 .4 2.7.9 3.7.5.9 1.9 3.9 3.1 6.7 4 8.9 6.5 13.3 13.9 24.3 5.8 8.6 9.6 12.6 20.1 21.2 3 2.5 5.7 4.8 5.8 5.2.2.5.9.8 1.7.8.7 0 1.8.7 2.5 1.5s2.4 2.1 3.9 2.8c6.3 3.4 15.8 8 17.6 8.7 1.1.4 3.1 1.2 4.5 1.7 1.4.6 3.8 1.6 5.3 2.2 1.5.6 3.9 1.1 5.2 1.1 1.3 0 2.6.4 2.9.9.5.7 17.2 2.4 24.1 2.3 8.3-.1 23.6-1.6 24.1-2.3.3-.5 1.8-.9 3.4-.9 1.6 0 3.2-.5 3.5-1 .3-.6 1.5-1 2.6-1 1 0 2.7-.4 3.7-.9 1.6-.8 8-3.7 14.2-6.4 1.4-.7 5.2-2.9 8.5-5.1 21.1-13.9 36.1-31.7 46.5-55.1 1.2-2.8 2.6-5.8 3.1-6.7.5-1 .9-2.7.9-3.7 0-1.1.5-2.3 1-2.6.6-.3 1-2.1 1-3.9 0-1.7.4-3.6.9-4.2 1.6-1.7 2.3-10.6 2.4-30.4 0-12.2-.4-21.4-1.2-24.5-.7-2.8-1.5-6.5-1.8-8.3-.3-1.8-.9-3.5-1.4-3.8-.5-.3-.9-1.8-.9-3.4 0-1.6-.4-3.2-1-3.5-.5-.3-1-1.5-1-2.5 0-1.1-.9-3.5-2-5.5s-2-4-2-4.6c0-.5-1.8-3.7-4-6.9s-4-6.1-4-6.4c0-.3-2.8-4.3-6.2-8.8-11.1-14.5-21.5-23.7-34.9-30.6-4-2.1-8.4-4.4-9.6-5-5.3-2.8-6.4-3.2-8.2-3.2-1.1 0-2.3-.5-2.6-1-.3-.6-1.7-1-3-1s-2.7-.5-3-1c-.3-.6-2.1-1-4-1s-3.7-.5-4-1c-.3-.6-2.9-1-5.7-1-2.8 0-7.9-.5-11.4-1.1-6.8-1.2-7.2-1.5-25.8-21.9-3.3-3.6-11.8-12.6-19-20-7.2-7.4-15.3-16.1-18.1-19.3-4.1-4.7-5.5-5.7-8.2-5.7-1.7 0-3.5.4-3.8 1-.3.5-1.9 1-3.5 1s-3.2.4-3.5 1c-.3.5-2.1 1-3.9 1-1.7 0-3.6.4-4.1.9-1.4 1.3-8.3 2.2-20.5 2.7-5.8.3-10.9.9-11.5 1.5-1.2 1.2-5.2 1.2-6-.1-.3-.6-5.2-1-11-1s-10.7-.4-11-1c-.3-.6-2.6-1-5-1s-4.7-.5-5-1c-.3-.6-1.9-1-3.5-1s-3.2-.5-3.5-1c-.3-.6-1.5-1-2.6-1-1 0-2.7-.4-3.7-.9-.9-.5-2.8-1.3-4.2-1.8-1.4-.6-4.5-2-6.8-3.2-2.4-1.1-5-2.1-5.8-2.1-.8 0-1.4-.4-1.4-.9s-.8-1.1-1.7-1.4c-2.4-.8-7.7-4-8.1-5-.2-.4-.8-.7-1.3-.7s-3.9-2.3-7.4-5c-3.5-2.8-6.6-5-6.7-5-.2 0-3.6 2.5-7.6 5.4z" fill="#FC3"/><path d="M1305 486.6c-11.2 1.8-12.3 2.2-22 6.8-5.6 2.7-11.1 5.7-12 6.6-.3.3-3 2.5-6 5-6.8 5.5-6.4 5.1-13 13-3 3.6-5.8 6.7-6.1 7-1.3 1.1-11.4 16.7-14.2 21.9-5.4 10.1-11.4 22.6-13.8 28.8-1.8 4.6-3.2 7.8-4 9.5-.5 1-.9 2.6-.9 3.6s-.4 2.2-.8 2.7c-.5.6-1.9 4.4-3.2 8.5-1.3 4.1-2.7 7.9-3.2 8.4-.4.6-.8 1.8-.8 2.8 0 1-.4 2.6-.9 3.6-.5.9-1.9 5.1-3.1 9.2-1.2 4.1-2.6 8.4-3 9.5-.4 1.1-1.3 4-2 6.5-2.6 9.2-3.3 11.6-4.1 13.8-.5 1.3-.9 3.4-.9 4.7 0 1.3-.4 2.6-.9 2.9-.5.3-1.1 2-1.4 3.8-.3 1.8-1 5.2-1.6 7.5-.6 2.4-1.6 6.2-2.1 8.5-.6 2.4-1.5 6.1-2.1 8.3-1.4 5.6-4.4 18.9-5.9 26.7-3.1 15.2-3.9 19.3-6 32.3-.6 3.8-1.6 9.5-2.1 12.5-1.5 9.4-4.6 33.8-5.9 47.5-1.9 19.5-2 19.8-6 20.8-3.2.7-10.8 2-20.5 3.3-2.2.4-4.4 1-4.9 1.5-.6.5-1.9.9-3 .9-2.4 0-7.6 1.6-15.8 4.9-1.3.5-5 1.9-8.3 3.2-5.7 2.2-19.5 9-28 13.8-3.9 2.2-12.4 8.4-17.5 12.7-1.4 1.2-5.7 4.8-9.6 8-14.2 11.9-37.3 38.6-44.1 51.3-1.1 2-3 5.4-4.3 7.6-1.3 2.2-4.2 7.6-6.5 12-4.1 7.8-4.3 8-8.6 8.7-2.4.4-6.6 1.2-9.4 1.8-2.7.6-7.5 1.5-10.5 2s-8.9 1.4-13 2.1c-4.1.6-11.5 1.2-16.5 1.3l-9 .1-.8-5c-.4-2.8-1.2-7.7-1.8-11-.5-3.3-1.2-7.7-1.6-9.8-.3-2-.9-4-1.4-4.3-.5-.3-.9-1.5-.9-2.7 0-2.4-2.2-9.3-3.3-10.3-.4-.4-.7-1.3-.7-2 0-1.3-5-13.1-7.1-16.8-.6-1-2-3.4-3-5.3-8.9-15.9-24.3-33.9-36.9-43.4-5.5-4.1-17.7-10.8-25.5-14-3.5-1.4-10.5-3.2-22.5-6-6.5-1.4-43.4-1.5-48.3-.1-1.7.5-5.9 1.5-9.2 2.2-3.3.7-6.9 1.6-8 2-1.1.5-3.8 1.4-6 2.1-2.2.7-4.4 1.6-5 1.9-.5.4-3 1.3-5.5 2s-4.9 1.7-5.5 2.1c-.5.4-2.7 1.6-4.7 2.8-12.7 7.1-13.9 7.9-23.2 15.1-8.3 6.4-24.6 22.6-28.6 28.5-1.8 2.7-4.6 6.6-6.1 8.5-3.6 4.6-12.9 22-17.4 32.5-3.1 7.3-3.4 8-4.6 12-.6 2.2-1.5 4.9-1.9 6-.8 2-2.3 7.7-4 14.5-4.8 19.3-6.9 45.9-5.5 70.7.6 10.7.5 13.6-.6 14.9-2.5 3.1-20.2 16.9-29.4 23.1-11.6 7.7-28.7 16.5-38 19.4-2.2.7-4.4 1.7-4.9 2.1-.6.4-2 .8-3.2.8-1.3 0-2.5.4-2.8.9-.6.9-4.4 1.6-17.1 3.1-8.8.9-23.9.4-29.7-1-2.1-.6-5.7-1.5-8-2.1-12.3-3.2-25.6-12.7-32.5-23.2-2.7-3.9-5.5-8.6-6.2-10.2-.7-1.7-1.7-3.8-2.2-4.7-.5-1-.9-2.7-.9-3.7 0-1.1-.4-2.2-.9-2.5-.5-.3-1.1-2.3-1.4-4.3-.4-2.1-1.2-7.2-1.9-11.3-2.5-14.4-1.4-43.5 2.2-60.5.6-2.8 1.4-6.5 1.7-8.3.3-1.8.9-3.5 1.4-3.8.5-.3.9-1.8.9-3.3 0-1.5.4-3.1.8-3.6.5-.6 1.5-3 2.2-5.5 1.8-5.7 7.7-17.3 12-23.5 4.5-6.6 16.6-19.1 20.1-21 1.6-.8 4.3-2.2 6-3.1 2.8-1.5 5.5-2.4 12.8-4.1 1.2-.3 4.8 0 7.9.8 11.7 2.8 17.9 14 15.2 27.5-.6 3.3-1.5 7.2-2 8.9-.4 1.6-1.3 5.5-2 8.5-.6 3-1.5 7.4-2.1 9.8-2.5 11.4.2 20.2 7.6 25.1 7.9 5.3 9.2 5.6 20.9 5.5 11.8-.1 15-1.1 23.4-7.4 4.5-3.3 11.4-12.7 14.7-19.8 1.5-3.1 3.1-6.5 3.6-7.4.5-1 .9-2.7.9-3.7 0-1.1.4-2.3 1-2.6.6-.3 1-1.9 1-3.5s.5-4.1 1.1-5.7c1.3-3.6 1.4-38.1 0-42.6-.5-1.7-1.5-5.2-2.3-7.7-1.8-6.6-7.7-17.6-13.2-24.8-4.9-6.4-14.3-15.3-18.6-17.6-1.4-.7-3.5-1.8-4.8-2.4-5.3-2.8-6.3-3.2-8.1-3.2-1.1 0-2.2-.4-2.5-.9-.3-.5-2-1.1-3.8-1.4-1.8-.3-6.2-1.2-9.8-1.9-15.9-3.1-47.1-.5-61.5 5.2-1.1.5-4.7 1.8-8 3.1-5.7 2.2-15.8 7.2-23.6 11.7-11.4 6.5-33.1 25.5-41.1 36-2.4 3.1-4.5 5.9-4.8 6.2-1.2 1.1-6.6 8.6-7.6 10.5-.6 1.1-2.1 3.7-3.2 5.7-2.4 4.1-5.4 9.4-7.1 12.4-1.1 2-6.5 14-8.3 18.4-.6 1.4-1.4 3.3-1.9 4.2-.5 1-.9 2.5-.9 3.3 0 .8-.4 2.3-.9 3.3-.8 1.6-1.4 3.4-4.2 14.4-2.3 9.1-2.8 11.5-3.8 18.3-2.7 18.5-3.3 28-2.8 46 .5 17.9 1 22.9 3.7 35 .6 2.7 1.3 6.2 1.7 7.8.3 1.5.9 3 1.4 3.3.5.3.9 1.4.9 2.5 0 3.9 9.9 24 17 34.4 14.2 20.8 34.9 38.1 54.8 45.6 1.2.5 3.2 1.3 4.5 1.8 24.4 10.4 69.2 13.6 98 7.2 9.6-2.2 14.3-3.2 17.2-3.7 1.7-.3 3.9-.9 5-1.4 1.1-.4 4-1.3 6.5-2 2.5-.6 5.3-1.6 6.2-2.1 1-.5 2.4-.9 3.1-.9.8 0 2.7-.6 4.3-1.4 1.6-.8 4.7-2.2 6.9-3.1 12.3-5.5 24-11.5 32-16.5 2.2-1.4 4.7-3 5.6-3.5 5.1-3.1 15.1-10.4 20.1-14.6 3.1-2.7 6.1-4.9 6.7-4.9.5 0 3.4 3.3 6.4 7.2 9.3 12.3 26 26.8 38.8 33.6 11.9 6.4 13.7 7.2 21.4 9.8 7.9 2.7 11.1 3.4 25.5 5.7 9.3 1.4 33.3 1.3 42-.2 3.6-.6 8.3-1.4 10.5-1.7 2.2-.3 4.4-1 5-1.5.5-.5 1.9-.9 3.1-.9 1.3 0 2.6-.5 2.9-1 .3-.6 1.4-1 2.3-1 1.8 0 17.3-7.4 23.3-11.2 25.3-15.9 49.2-42.9 62.5-70.8 2.4-5 3.1-6.7 5.5-12.5.4-1.1 1.8-5.2 3-9 1.2-3.9 2.5-7.8 3-8.7.5-1 .9-2.8.9-4 0-2.7 2.3-9.5 3.6-10.7.5-.5 5-1.2 9.9-1.5 9.3-.6 24.9-2.1 32.1-3.2 2.9-.4 4.4-.2 5 .7.4.7.7 8.5.6 17.3-.2 18.2 1.9 40.9 3.9 42.2.5.3.9 1.6.9 3 0 1.3.4 3.2.9 4.2.5.9 1.3 2.8 1.9 4.2 10.9 27.1 28.7 47.6 50.9 58.9 3.3 1.7 6.8 3.1 7.6 3.1.9 0 1.9.4 2.2 1 .3.5 1.5 1 2.6 1 1 0 2.7.4 3.7.9 8.2 4.3 41.2 3.9 57.2-.7 1.9-.6 4.6-1.4 6-1.7 5.6-1.5 16.1-7.3 25-13.9 10.6-7.9 31.9-28.7 39.3-38.4 2.6-3.4 5.4-6.2 6.1-6.2.8 0 3.1 3.5 5.2 7.7 6.3 12.9 13.1 22.2 24.3 33.3 8.3 8.2 12.1 11.2 17.6 13.9 3.9 1.8 7.8 3.7 8.7 4.2 1 .5 2.7.9 3.7.9 1.1 0 2.2.4 2.5.9.3.5 2.3 1.2 4.3 1.6 5.8 1.2 32.2 1 37.3-.3 23.1-5.5 34.8-11.4 58.5-29.3 5-3.7 9.9-7.6 11-8.6 13.1-11.9 18.5-16.3 20.1-16.3 1.2 0 3.6 2.3 6.4 6.2 11.8 16.2 29.1 29.4 50.5 38.3 2.2.9 4.8 2.1 5.7 2.6 1 .5 2.7.9 3.7.9 1.1 0 2.2.4 2.5.9.3.5 2 1.2 3.8 1.5 1.8.4 5.6 1.1 8.3 1.7 18.2 3.7 48.6 4.9 64.5 2.5 5.8-.9 12.1-1.9 14-2.2 3.8-.5 10.3-2.2 13.5-3.4 1.1-.4 3.8-1.3 6-1.9 2.2-.7 5.1-1.7 6.5-2.3 1.4-.6 3.4-1.4 4.5-1.8 24.5-9.1 54.9-36.3 66.4-59.5 9.1-18.5 11.8-44.3 5.8-57.5-4.9-10.9-15.1-15.1-24.4-9.9-5.5 3.1-5.7 3.3-16.3 16.4-11 13.6-31.2 33.6-39.8 39.3-15.5 10.3-31.8 14.8-49.8 13.9-14.6-.8-22.4-2.3-30.1-5.8-2.4-1-4.6-1.9-5-1.9-1.3 0-14-10.4-16.6-13.6-1.3-1.6-3.8-5.1-5.7-7.8-3.8-5.6-3.4-7.6 2.1-8.9 1.9-.4 5-1.2 6.9-1.7 1.9-.5 4.9-1.2 6.5-1.5 1.7-.4 3.9-1 5-1.5 1.1-.4 4-1.3 6.5-2 2.5-.6 5.3-1.6 6.2-2.1 1-.5 2.7-.9 3.7-.9 1.1 0 2.2-.4 2.5-.8.3-.4 2.8-1.4 5.6-2.2 2.8-.8 5.3-1.8 5.6-2.2.3-.4 1.2-.8 2-.8s3.6-.9 6.2-2.1c2.6-1.2 5.6-2.5 6.7-2.9 5.3-2 20.5-9.7 24.2-12.2 2.3-1.5 4.4-2.8 4.8-2.8.3 0 4.1-2.3 8.3-5.2 8.9-6 23.5-20.2 31-30.3 5.6-7.5 15.2-25.6 15.2-28.6 0-1 .5-2.1 1-2.4.6-.3 1-1.7 1-3s.4-2.6.9-2.9c.9-.6 1.2-2.2 3.1-16.1 2.5-18.5 2.2-34.4-1-44.5-.4-1.4-1.4-4.5-2.1-7-1.6-5.6-7.9-18-11.6-22.9-13.6-18.1-30-28.1-55.6-34-6-1.4-36.9-1.4-43.9 0-15.3 3-20.7 4.4-24 6-1 .5-2.5.9-3.3.9-.8 0-2.3.4-3.3.9-.9.5-3.5 1.7-5.7 2.6-14.4 6.2-22.6 11.4-39 24.9-4.7 3.9-18.2 17.6-21.8 22.1-4.3 5.3-12 16.2-12.8 18-.5 1.1-2.2 4.2-3.9 7-2.9 4.9-9.3 17.7-11.1 22.2-2.2 5.5-3.2 7.9-4 9.5-.5 1-.9 2.7-.9 3.7 0 1.1-.4 2.2-.9 2.5-.5.3-1.1 1.8-1.4 3.3-.3 1.6-1.1 4.8-1.7 7.3-2 7.9-3.1 13.3-4.1 19.5-1.8 11.1-3 37.9-2.4 53l.6 15-15.3 15.1c-16.8 16.6-24 22-35 26.3-1.3.5-3.6 1.4-5.1 2-1.5.6-6.3 1.1-10.6 1.1-9.2 0-14.4-2.1-20.9-8.4-3.9-3.6-11.2-16.5-11.2-19.5 0-.6-.4-1.9-.9-2.9-.5-.9-1.4-3.7-2.1-6.2-.7-2.5-1.6-5.5-2.1-6.8-.5-1.3-.9-3.5-.9-4.9 0-1.5-.4-4-.9-5.7-1.8-5.6-3.5-25.5-2.3-26.8.5-.7 2.2-3.4 3.6-6.1 1.4-2.6 3.7-6.7 5.1-9.2 1.4-2.5 3.6-6.5 5-9s3.6-6.4 4.9-8.8c1.3-2.3 3.3-6 4.6-8.2 1.3-2.2 3.8-6.7 5.6-10 3.9-7.2 31.1-61.6 34.8-69.8 1.4-3.1 3.7-8.2 5.1-11.2 1.4-3 3.6-8 5-11 5.9-12.9 7.3-16.2 8.9-19.8 3-6.9 4.8-11.2 5.7-13.5.5-1.2 1.3-3.2 1.8-4.5.5-1.2 1.9-4.9 3.2-8.2 1.2-3.3 2.6-6.4 3.1-7 .4-.5.8-1.5.8-2.2 0-.8.9-3.3 2-5.5 1.1-2.3 2-4.5 2-5s.8-2.7 1.9-5.1c3.1-6.9 5.7-14.3 11.2-31.2 2.8-8.8 5.5-16.8 6-17.7.5-1 .9-2.7.9-3.7 0-1.1.4-2.2.9-2.5.5-.3 1.1-1.8 1.4-3.3.3-1.6 1-4.5 1.6-6.6 2.4-8.2 3.3-11.3 4.1-14.7.5-1.9 1.4-5.3 2-7.5.6-2.2 1.6-5.9 2.1-8.3.5-2.3 1.4-6.2 1.9-8.7 3.2-14.6 3.7-16.8 6-29.5 1.3-7.2 2.3-14.3 4.2-30.5 1.6-13.9 1.6-62.3 0-72.5-.6-4.1-1.4-9.3-1.7-11.5-.4-2.2-1-4.9-1.4-6-.5-1.1-1.9-5.4-3.2-9.5-2.1-6.6-3.8-10.5-9.5-20.9-2.1-3.9-12.5-15.4-17.1-19-4.9-3.8-14.7-9.1-16.9-9.1-.8 0-2.2-.4-3.2-.9-1.9-1-15.2-3.2-18-3-.9.1-5.1.8-9.2 1.5zm7.9 70c4.5 3.8 8.5 13.9 10.8 27.4 1.2 7.2.8 57.6-.5 67.5-2.9 21.5-3.2 23.6-6.2 38.5-.5 2.7-1.4 7.1-1.9 9.7-.9 4.5-1.6 7.6-4.1 17-.5 2.1-1.3 5.6-1.9 7.8-.9 3.8-1.7 6.8-4.2 15.2-.6 2.1-1.3 5-1.6 6.6-.3 1.5-.9 3-1.4 3.3-.5.3-.9 1.4-.9 2.5 0 2.2-9.4 31.2-11 34.1-.6 1-1 2.6-1 3.6s-.4 2.2-.8 2.8c-.5.5-1.5 2.9-2.2 5.4-.8 2.5-1.6 4.9-2 5.5-.3.5-1.2 2.8-1.9 5s-1.7 5.1-2.3 6.5c-1.1 2.6-2.5 6-3.8 9.5-.5 1.1-2.5 6.3-4.5 11.5s-4.4 11.1-5.2 13c-.8 1.9-1.9 4.4-2.3 5.5-.4 1.1-1.6 3.8-2.5 6-1 2.2-2.4 5.6-3.2 7.5-.8 1.9-2.3 5.3-3.3 7.5s-2.5 5.6-3.3 7.5c-.8 1.9-2.4 5.6-3.6 8.2-1.2 2.7-2.6 6-3.1 7.4-.6 1.4-1.6 2.4-2.3 2.1-1.5-.5-1.5-13.4.2-37.2.7-9.4 1.6-23.3 2.1-31 .5-7.7 1.4-18.5 2-24 .6-5.5 1.5-14.3 2-19.5.5-5.2 1.4-13.8 2-19 .5-5.2 1.4-14 2-19.5 1.6-16.4 4.3-37.7 6-49 2.6-17.1 5.9-36.2 8-46.5.5-2.5 1.4-6.8 1.9-9.5.5-2.8 1.5-7 2.1-9.5.6-2.5 1.5-6.3 2-8.5.9-4 2.1-9 4-16.3.5-2 1.2-5.1 1.5-6.7.4-1.7 1-3.9 1.4-5 .5-1.1 1.8-5.2 3-9 6.1-19.6 15.4-34.4 22.5-35.8 4-.8 4.5-.7 7.5 1.9zm193.5 345.9c9 2.7 14.4 7.5 18.3 16.3 2.2 4.9 2.6 7.1 2.6 15.7-.1 16.9-5.5 29-19.7 43.1-8.3 8.2-28.9 20.9-43.3 26.5-1.3.5-3.5 1.4-5 2-8 3.3-10.3 4.1-15.3 5.1-13.7 2.8-13.9 2.7-12.2-11 .7-5.3 1.2-11.2 1.2-12.9 0-1.8.5-5.4 1.1-8 3.4-14.8 4.9-20.5 6-22.5.5-1 .9-2.3.9-3 0-1.8 9.3-19.9 13.1-25.6 4.8-6.9 16.9-18.4 22.5-21.1 12.5-6 20.8-7.3 29.8-4.6zm-351.8 50.7c.1 27.8.5 51.1.8 51.7.4.6 1.2 6 1.7 11.9s1.4 13.4 1.9 16.7c.5 3.3 1.2 8.3 1.6 11.2l.6 5.2-8.8 11.8c-16.9 22.5-27.2 32.5-38.2 37.5-2.6 1.1-5.7 2.6-7 3.1-1.2.6-6.4 1.1-11.5 1-7.9 0-10-.3-14.9-2.6-8.4-4-15.6-13.1-18.7-23.7-2.7-9.7-3.1-13-3.1-29.1 0-16 .4-20.7 3.1-34.4 4.2-21.4 13.8-43.3 28.9-65.5 10.4-15.4 28.9-31.6 44-38.7 11.7-5.5 16.7-7.3 18.5-6.9.6.2 1 18.1 1.1 50.8zm-354.4-40.7c-.8 13.7-.4 37.5.6 41.5.6 2.5 1.5 6.3 2 8.5 2 8.7 11.6 29.1 17.2 36.6 4 5.5 13.4 15 19.4 19.9l5.6 4.5-.4 5.5c-.8 8.6-1.7 14-2.7 14.6-.5.3-.9 1.4-.9 2.5 0 1-.4 2.7-.9 3.7-.4.9-2.7 5.7-5.1 10.7-4.9 10.5-12.9 21.6-19.4 26.8-4.9 4.1-14.9 9.7-17.2 9.7-.8 0-2.2.4-3.2.9-3.1 1.7-16.9 3.2-19.7 2.1-1.5-.6-3.5-1-4.6-1-3.9 0-14.9-6.2-20.2-11.5-9.3-9-16.5-21.2-19.9-33.5-5.8-21.1-5.2-70.7 1.2-86.5.4-1.1 1.4-4 2.1-6.5 2.3-7.7 12.6-26.9 17.4-32.5 5.7-6.8 16.5-14.9 21.9-16.6 2.2-.7 4.5-1.6 5.1-2.1.5-.4 2-.8 3.5-.8 1.4 0 3.2-.5 4-1 .8-.6 4.4-.9 8-.8l6.5.3-.3 5z" fill="#39F"/></svg>